<?xml version="1.0" standalone="no"?>
<!DOCTYPE svg PUBLIC "-//W3C//DTD SVG 1.1//EN" "http://www.w3.org/Graphics/SVG/1.1/DTD/svg11.dtd" >
<!--
2019-8-8: Created with FontForge (http://fontforge.org)
-->
<svg xmlns="http://www.w3.org/2000/svg" xmlns:xlink="http://www.w3.org/1999/xlink" version="1.1">
<metadata>
Created by FontForge 20190318 at Thu Aug  8 20:51:25 2019
 By Renato Bezerra

</metadata>
<defs>
<font id="Feather" horiz-adv-x="512" >
  <font-face 
    font-family="Feather"
    font-weight="400"
    font-stretch="normal"
    units-per-em="512"
    panose-1="2 0 5 3 0 0 0 0 0 0"
    ascent="448"
    descent="-64"
    bbox="-960 -94.1699 524.838 1450.67"
    underline-thickness="25.6"
    underline-position="-51.2"
    unicode-range="U+0020-F219"
  />
    <missing-glyph />
    <glyph glyph-name="space" unicode=" " horiz-adv-x="200" 
 />
    <glyph glyph-name="code" unicode="&#xf140;" 
d="M341.333 64l15.085 -15.085l128 128l15.085 15.085l-15.085 15.085l-128 128l-15.085 -15.085l-15.085 -15.085l112.915 -112.915l-112.915 -112.915zM170.667 320l-15.085 15.085l-128 -128l-15.085 -15.085l15.085 -15.085l128 -128l15.085 15.085l15.085 15.085
l-112.915 112.915l112.915 112.915z" />
    <glyph glyph-name="truck" unicode="&#xf1f6;" 
d="M42.667 128v234.667h277.333v-234.667h-277.333zM21.333 85.333h320h21.334v21.334v277.333v21.333h-21.334h-320h-21.333v-21.333v-277.333v-21.334h21.333zM341.333 298.667h-21.333v-21.334v-170.666v-21.334h21.333h149.334h21.333v21.334v106.666v8.83691
l-6.24805 6.24805l-64 64l-6.24902 6.24902h-8.83594h-85.334zM362.667 256h55.1631l51.5029 -51.5029v-76.4971h-106.666v128zM85.333 53.333c0 17.6807 14.3203 32 32 32c17.6807 0 32 -14.3193 32 -32c0 -17.6797 -14.3193 -32 -32 -32c-17.6797 0 -32 14.3203 -32 32z
M42.667 53.333c0 -41.2363 33.4297 -74.666 74.666 -74.666c41.2373 0 74.667 33.4297 74.667 74.666c0 41.2373 -33.4297 74.667 -74.667 74.667c-41.2363 0 -74.666 -33.4297 -74.666 -74.667zM362.667 53.333c0 17.6807 14.3193 32 32 32c17.6797 0 32 -14.3193 32 -32
c0 -17.6797 -14.3203 -32 -32 -32c-17.6807 0 -32 14.3203 -32 32zM320 53.333c0 -41.2363 33.4297 -74.666 74.667 -74.666c41.2363 0 74.666 33.4297 74.666 74.666c0 41.2373 -33.4297 74.667 -74.666 74.667c-41.2373 0 -74.667 -33.4297 -74.667 -74.667z" />
    <glyph glyph-name="arrow-right-circle" unicode="&#xf113;" 
d="M64 192c0 106.033 85.9668 192 192 192s192 -85.9668 192 -192s-85.9668 -192 -192 -192s-192 85.9668 -192 192zM21.333 192c0 -129.592 105.075 -234.667 234.667 -234.667s234.667 105.075 234.667 234.667s-105.075 234.667 -234.667 234.667
s-234.667 -105.075 -234.667 -234.667zM256 106.667l15.085 -15.085l85.333 85.333l15.085 15.085l-11.3135 11.3135l-3.77148 3.77148l-85.333 85.333l-15.085 -15.085l-15.085 -15.085l70.248 -70.248l-70.248 -70.248zM170.667 192v-21.333h170.666v21.333v21.333
h-170.666v-21.333z" />
    <glyph glyph-name="cloud-off" unicode="&#xf13d;" 
d="M482.354 86.3955l19.6582 -8.28613c6.17676 14.6523 10.1123 33.9404 10.1123 49.8906c0 70.6592 -57.2373 128 -128.125 128h-11.0869c-31.2588 75.2002 -94.3359 121.741 -164.309 127.917l-1.875 -21.25l-1.87598 -21.251
c56.8379 -5.0166 117.538 -56.6836 131.596 -112.003l4.08496 -16.0801h16.5908h26.875c47.3193 0 85.458 -38.2422 85.458 -85.333c0 -7.96582 -3.64746 -25.9287 -6.76172 -33.3174zM106.667 341.333l-10.3203 18.6719
c-56.2549 -31.0928 -99.0967 -103.752 -99.0967 -168.025c0 -106.015 83.665 -191.979 194.75 -191.979h192.043c13.8018 0.0283203 30.4775 2.95117 43.501 7.67383l-7.27344 20.0557l-7.27246 20.0547c-6.39355 -2.31836 -22.2178 -5.10352 -29.041 -5.11719h-191.957
c-87.5195 0 -152.083 66.8652 -152.083 149.312c0 46.8516 36.0742 108.024 77.0693 130.683zM106.667 341.333l-10.3203 18.6719c-56.2549 -31.0928 -99.0967 -103.752 -99.0967 -168.025c0 -106.015 83.665 -191.979 194.75 -191.979h192.043
c13.8018 0.0283203 30.4775 2.95117 43.501 7.67383l-7.27344 20.0557l-7.27246 20.0547c-6.39355 -2.31836 -22.2178 -5.10352 -29.041 -5.11719h-191.957c-87.5195 0 -152.083 66.8652 -152.083 149.312c0 46.8516 36.0742 108.024 77.0693 130.683zM21.333 426.667
l-15.085 -15.085l469.334 -469.334l15.085 15.085l15.085 15.085l-469.334 469.334z" />
    <glyph glyph-name="move" unicode="&#xf1a7;" 
d="M106.667 256l-15.085 15.085l-64 -64l-15.085 -15.085l15.085 -15.085l64 -64l15.085 15.085l15.085 15.085l-48.915 48.915l48.915 48.915zM192 341.333l15.085 -15.085l48.915 48.915l48.915 -48.915l15.085 15.085l15.085 15.085l-64 64l-15.085 15.085
l-15.085 -15.085l-64 -64zM320 42.667l-15.085 15.085l-48.915 -48.915l-48.915 48.915l-15.085 -15.085l-15.085 -15.085l64 -64l15.085 -15.085l15.085 15.085l64 64zM405.333 256l-15.085 -15.085l48.915 -48.915l-48.915 -48.915l15.085 -15.085l15.085 -15.085l64 64
l15.085 15.085l-15.085 15.085l-64 64zM42.667 192v-21.333h426.666v21.333v21.333h-426.666v-21.333zM256 405.333h-21.333v-426.666h21.333h21.333v426.666h-21.333z" />
    <glyph glyph-name="scissors" unicode="&#xf1cb;" 
d="M85.333 320c0 23.5771 19.0898 42.667 42.667 42.667s42.667 -19.0898 42.667 -42.667s-19.0898 -42.667 -42.667 -42.667s-42.667 19.0898 -42.667 42.667zM42.667 320c0 -47.1309 38.2021 -85.333 85.333 -85.333s85.333 38.2021 85.333 85.333
s-38.2021 85.333 -85.333 85.333s-85.333 -38.2021 -85.333 -85.333zM85.333 64c0 23.5771 19.0898 42.667 42.667 42.667s42.667 -19.0898 42.667 -42.667s-19.0898 -42.667 -42.667 -42.667s-42.667 19.0898 -42.667 42.667zM42.667 64
c0 -47.1309 38.2021 -85.333 85.333 -85.333s85.333 38.2021 85.333 85.333s-38.2021 85.333 -85.333 85.333s-85.333 -38.2021 -85.333 -85.333zM426.667 362.667l-15.085 15.085l-253.438 -253.438l15.085 -15.085l15.085 -15.085l253.438 253.438zM308.688 139.083
l-15.0703 -15.0996l117.979 -117.75l15.0703 15.0996l15.0703 15.0996l-117.979 117.75zM173.229 274.771l-15.085 -15.085l82.7705 -82.7705l15.085 15.085l15.085 15.085l-82.7705 82.7705z" />
    <glyph glyph-name="help-circle" unicode="&#xf17e;" 
d="M64 192c0 106.033 85.9668 192 192 192s192 -85.9668 192 -192s-85.9668 -192 -192 -192s-192 85.9668 -192 192zM21.333 192c0 -129.592 105.075 -234.667 234.667 -234.667s234.667 105.075 234.667 234.667s-105.075 234.667 -234.667 234.667
s-234.667 -105.075 -234.667 -234.667zM193.917 256l20.1221 -7.08594c5.0791 14.4229 24.9873 28.5234 40.2529 28.5234c23.5449 0 42.666 -19.0498 42.666 -42.7705c0 -22.123 -45.875 -42.4668 -49.957 -43.9512l7.29102 -20.0488l7.29004 -20.0488
s78.043 19.7236 78.043 84.0488c0 47.2822 -38.2119 85.4375 -85.333 85.4375c-34.7764 0 -68.9521 -24.2334 -80.4971 -57.0186zM256 85.333z" />
    <glyph glyph-name="pie-chart" unicode="&#xf1b9;" 
d="M452.479 109.021l-19.6494 8.30762c-26.748 -63.2656 -108.156 -117.224 -176.83 -117.224c-105.988 0 -192 86.0117 -192 192c0 67.7891 53.0557 148.854 115.198 175.968l-8.53125 19.5527l-8.53223 19.5527c-79.1904 -34.5518 -140.802 -128.696 -140.802 -215.073
c0 -129.554 105.113 -234.667 234.667 -234.667c87.4092 0 182.084 62.75 216.129 143.276zM446.837 213.333h-169.504v169.504c83.1543 -10.0293 158.113 -75.0664 169.504 -169.504zM490.667 192c0 129.534 -105.133 234.667 -234.667 234.667h-21.333v-21.334v-213.333
v-21.333h21.333h213.333h21.334v21.333z" />
    <glyph glyph-name="align-left" unicode="&#xf107;" 
d="M362.667 234.667v21.333h-298.667v-21.333v-21.334h298.667v21.334zM448 320v21.333h-384v-21.333v-21.333h384v21.333zM448 149.333v21.334h-384v-21.334v-21.333h384v21.333zM362.667 64v21.333h-298.667v-21.333v-21.333h298.667v21.333z" />
    <glyph glyph-name="disc" unicode="&#xf156;" 
d="M64 192c0 106.033 85.9668 192 192 192s192 -85.9668 192 -192s-85.9668 -192 -192 -192s-192 85.9668 -192 192zM21.333 192c0 -129.592 105.075 -234.667 234.667 -234.667s234.667 105.075 234.667 234.667s-105.075 234.667 -234.667 234.667
s-234.667 -105.075 -234.667 -234.667zM213.333 192c0 23.5771 19.0898 42.667 42.667 42.667s42.667 -19.0898 42.667 -42.667s-19.0898 -42.667 -42.667 -42.667s-42.667 19.0898 -42.667 42.667zM170.667 192c0 -47.1309 38.2021 -85.333 85.333 -85.333
s85.333 38.2021 85.333 85.333s-38.2021 85.333 -85.333 85.333s-85.333 -38.2021 -85.333 -85.333z" />
    <glyph glyph-name="radio" unicode="&#xf1c2;" 
d="M234.667 192c0 11.7822 9.55078 21.333 21.333 21.333s21.333 -9.55078 21.333 -21.333s-9.55078 -21.333 -21.333 -21.333s-21.333 9.55078 -21.333 21.333zM192 192c0 -35.3428 28.6572 -64 64 -64s64 28.6572 64 64s-28.6572 64 -64 64s-64 -28.6572 -64 -64z
M346.458 282.458l-15.085 -15.085c15.8398 -15.8389 31.2939 -53.0957 31.2939 -75.4775c0 -22.3809 -15.4541 -59.6377 -31.2939 -75.4775l15.085 -15.085l15.085 -15.085c25.5771 25.5771 43.79 69.4463 43.79 105.647c0 36.2021 -18.2129 80.0703 -43.79 105.647z
M165.542 101.542l15.085 15.085c-15.8398 15.8389 -31.2939 53.0957 -31.2939 75.4775c0 22.3809 15.4541 59.6377 31.2939 75.4775l-15.085 15.085l-15.085 15.085c-25.5771 -25.5771 -43.79 -69.4463 -43.79 -105.647c0 -36.2021 18.2129 -80.0703 43.79 -105.647z
M406.833 342.833l-15.0889 -15.0801c29.6055 -29.623 56.2139 -93.8799 56.2139 -135.753s-26.6084 -106.13 -56.2139 -135.753l15.0889 -15.0801l15.0898 -15.0811c39.3525 39.377 68.7021 110.245 68.7021 165.914s-29.3496 126.537 -68.7021 165.914zM105.167 41.167
l15.0889 15.0801c-29.6055 29.623 -56.2139 93.8799 -56.2139 135.753s26.6084 106.13 56.2139 135.753l-15.0889 15.0801l-15.0898 15.0811c-39.3525 -39.377 -68.7021 -110.245 -68.7021 -165.914s29.3496 -126.537 68.7021 -165.914zM165.542 101.542l15.085 15.085
c-15.8398 15.8389 -31.2939 53.0957 -31.2939 75.4775c0 22.3809 15.4541 59.6377 31.2939 75.4775l-15.085 15.085l-15.085 15.085c-25.5771 -25.5771 -43.79 -69.4463 -43.79 -105.647c0 -36.2021 18.2129 -80.0703 43.79 -105.647zM406.833 342.833l-15.0889 -15.0801
c29.6055 -29.623 56.2139 -93.8799 56.2139 -135.753s-26.6084 -106.13 -56.2139 -135.753l15.0889 -15.0801l15.0898 -15.0811c39.3525 39.377 68.7021 110.245 68.7021 165.914s-29.3496 126.537 -68.7021 165.914zM105.167 41.167l15.0889 15.0801
c-29.6055 29.623 -56.2139 93.8799 -56.2139 135.753s26.6084 106.13 56.2139 135.753l-15.0889 15.0801l-15.0898 15.0811c-39.3525 -39.377 -68.7021 -110.245 -68.7021 -165.914s29.3496 -126.537 68.7021 -165.914zM406.833 342.833l-15.0889 -15.0801
c29.6055 -29.623 56.2139 -93.8799 56.2139 -135.753s-26.6084 -106.13 -56.2139 -135.753l15.0889 -15.0801l15.0898 -15.0811c39.3525 39.377 68.7021 110.245 68.7021 165.914s-29.3496 126.537 -68.7021 165.914zM105.167 41.167l15.0889 15.0801
c-29.6055 29.623 -56.2139 93.8799 -56.2139 135.753s26.6084 106.13 56.2139 135.753l-15.0889 15.0801l-15.0898 15.0811c-39.3525 -39.377 -68.7021 -110.245 -68.7021 -165.914s29.3496 -126.537 68.7021 -165.914zM105.167 41.167l15.0889 15.0801
c-29.6055 29.623 -56.2139 93.8799 -56.2139 135.753s26.6084 106.13 56.2139 135.753l-15.0889 15.0801l-15.0898 15.0811c-39.3525 -39.377 -68.7021 -110.245 -68.7021 -165.914s29.3496 -126.537 68.7021 -165.914z" />
    <glyph glyph-name="log-out" unicode="&#xf191;" 
d="M192 0v21.333h-85.333c-11.7832 0 -21.334 9.55078 -21.334 21.334v298.666c0 11.7832 9.55078 21.334 21.334 21.334h85.333v21.333v21.333h-85.333c-35.3428 0 -64 -28.6572 -64 -64v-298.666c0 -35.3428 28.6572 -64 64 -64h85.333v21.333zM341.333 85.333
l15.085 -15.085l106.667 106.667l15.085 15.085l-11.3135 11.3135l-3.77148 3.77148l-106.667 106.667l-15.085 -15.085l-15.085 -15.085l91.582 -91.582l-91.582 -91.582zM448 192v21.333h-256v-21.333v-21.333h256v21.333z" />
    <glyph glyph-name="sidebar" unicode="&#xf1d7;" 
d="M85.333 341.333c0 9.53125 -0.1875 7.9043 0.335938 20.998c0.986328 0.0400391 11.1836 0.335938 20.998 0.335938h298.666c9.53125 0 7.9043 0.1875 20.998 -0.335938c0.0400391 -0.986328 0.335938 -11.1836 0.335938 -20.998v-298.666
c0 -9.53125 0.1875 -7.9043 -0.335938 -20.998c-0.986328 -0.0400391 -11.1836 -0.335938 -20.998 -0.335938h-298.666c-9.53125 0 -7.9043 -0.1875 -20.998 0.335938c-0.0400391 0.986328 -0.335938 11.1836 -0.335938 20.998v298.666zM42.667 341.333v-298.666
c0 -47.4092 16.5908 -64 64 -64h298.666c47.4092 0 64 16.5908 64 64v298.666c0 47.4092 -16.5908 64 -64 64h-298.666c-47.4092 0 -64 -16.5908 -64 -64zM192 384h-21.333v-384h21.333h21.333v384h-21.333z" />
    <glyph glyph-name="rotate-ccw" unicode="&#xf1c7;" 
d="M21.333 362.667h-21.333v-128v-21.334h21.333h128v21.334v21.333h-106.666v106.667h-21.334zM74.875 128l-20.1211 -7.08984c28.1758 -79.96 116.438 -142.452 201.226 -142.452c117.763 0 213.333 95.5703 213.333 213.334c0 117.783 -95.5723 213.333 -213.333 213.333
c-50.6523 0 -115.037 -26.709 -150.51 -62.1113l-98.7461 -92.8018l14.6094 -15.5449l14.6104 -15.5459l99.2119 93.2402c26.6104 26.5566 83.7676 50.0967 120.824 50.0967c94.1973 0 170.666 -76.4502 170.666 -170.666c0 -94.1953 -76.4707 -170.667 -170.666 -170.667
c-65.2969 0 -139.284 52.3838 -160.983 113.965z" />
    <glyph glyph-name="underline" unicode="&#xf1fc;" 
d="M128 384h-21.333v-149.333c0 -82.4277 66.8809 -149.334 149.333 -149.334s149.333 66.9062 149.333 149.334v149.333h-21.333h-21.333v-149.333c0 -58.8643 -47.7852 -106.667 -106.667 -106.667s-106.667 47.8027 -106.667 106.667v149.333h-21.333zM85.333 0v-21.333
h341.334v21.333v21.333h-341.334v-21.333z" />
    <glyph glyph-name="shield" unicode="&#xf1d2;" 
d="M256 2.91992c-34.29 19.7168 -149.333 95.1035 -149.333 189.08v134.55l149.333 56l149.333 -56v-134.55c0 -91.5781 -105.726 -164.006 -149.333 -189.08zM265.68 -40.3447c0 0 182.32 85.9668 182.32 232.345v149.333v14.7842l-13.8428 5.19141l-170.667 64
l-7.49023 2.80859l-7.49023 -2.80859l-170.667 -64l-13.8428 -5.19141v-14.7842v-149.333c0 -146.389 182.32 -232.345 182.32 -232.345l9.67969 -4.92773z" />
    <glyph glyph-name="layers" unicode="&#xf187;" 
d="M256 381.482l165.631 -82.8154l-165.631 -82.8154l-165.631 82.8154zM246.459 424.414l-213.333 -106.666l-38.1621 -19.0811l38.1621 -19.0811l213.333 -106.667l9.54102 -4.77051l9.54102 4.77051l213.333 106.667l38.1621 19.0811l-38.1621 19.0811l-213.333 106.666
l-9.54102 4.77051zM42.667 85.333l-9.54102 -19.0811l213.333 -106.666l9.54102 -4.77051l9.54102 4.77051l213.333 106.666l-9.54102 19.0811l-9.54004 19.0811l-203.793 -101.896l-203.793 101.896zM42.667 192l-9.54102 -19.0811l213.333 -106.667l9.54102 -4.76953
l9.54102 4.76953l213.333 106.667l-9.54102 19.0811l-9.54004 19.0811l-203.793 -101.896l-203.793 101.896z" />
    <glyph glyph-name="trash-2" unicode="&#xf1f1;" 
d="M64 320v-21.333h42.667h341.333v21.333v21.333h-341.333h-42.667v-21.333zM405.333 320h-21.333v-298.667c0 -11.7539 -9.5791 -21.333 -21.333 -21.333h-213.334c-11.7539 0 -21.333 9.5791 -21.333 21.333v298.667h-21.333h-21.334v-298.667
c0 -35.3291 28.6709 -64 64 -64h213.334c35.3291 0 64 28.6709 64 64v298.667h-21.334zM170.667 320h21.333v42.667c0 11.7539 9.5791 21.333 21.333 21.333h85.334c11.7539 0 21.333 -9.5791 21.333 -21.333v-42.667h21.333h21.334v42.667c0 35.3291 -28.6709 64 -64 64
h-85.334c-35.3291 0 -64 -28.6709 -64 -64v-42.667h21.334zM170.667 320h21.333v42.667c0 11.7539 9.5791 21.333 21.333 21.333h85.334c11.7539 0 21.333 -9.5791 21.333 -21.333v-42.667h21.333h21.334v42.667c0 35.3291 -28.6709 64 -64 64h-85.334
c-35.3291 0 -64 -28.6709 -64 -64v-42.667h21.334zM213.333 213.333h-21.333v-128h21.333h21.334v128h-21.334zM298.667 213.333h-21.334v-128h21.334h21.333v128h-21.333z" />
    <glyph glyph-name="pause" unicode="&#xf1ae;" 
d="M149.333 42.667v298.666h42.667v-298.666h-42.667zM128 0h85.333h21.334v21.333v341.334v21.333h-21.334h-85.333h-21.333v-21.333v-341.334v-21.333h21.333zM320 42.667v298.666h42.667v-298.666h-42.667zM298.667 0h85.333h21.333v21.333v341.334v21.333h-21.333
h-85.333h-21.334v-21.333v-341.334v-21.333h21.334z" />
    <glyph glyph-name="layout" unicode="&#xf188;" 
d="M85.333 341.333c0 9.53125 -0.1875 7.9043 0.335938 20.998c0.986328 0.0400391 11.1836 0.335938 20.998 0.335938h298.666c9.53125 0 7.9043 0.1875 20.998 -0.335938c0.0400391 -0.986328 0.335938 -11.1836 0.335938 -20.998v-298.666
c0 -9.53125 0.1875 -7.9043 -0.335938 -20.998c-0.986328 -0.0400391 -11.1836 -0.335938 -20.998 -0.335938h-298.666c-9.53125 0 -7.9043 -0.1875 -20.998 0.335938c-0.0400391 0.986328 -0.335938 11.1836 -0.335938 20.998v298.666zM42.667 341.333v-298.666
c0 -47.4092 16.5908 -64 64 -64h298.666c47.4092 0 64 16.5908 64 64v298.666c0 47.4092 -16.5908 64 -64 64h-298.666c-47.4092 0 -64 -16.5908 -64 -64zM64 256v-21.333h384v21.333v21.333h-384v-21.333zM192 0h21.333v256h-21.333h-21.333v-256h21.333z" />
    <glyph glyph-name="monitor" unicode="&#xf1a2;" 
d="M64 341.333c0 9.53125 -0.188477 7.9043 0.335938 20.998c0.985352 0.0400391 11.1826 0.335938 20.9971 0.335938h341.334c9.53125 0 7.90332 0.1875 20.9971 -0.335938c0.0400391 -0.986328 0.335938 -11.1836 0.335938 -20.998v-213.333
c0 -9.53125 0.188477 -7.9043 -0.335938 -20.998c-0.985352 -0.0390625 -11.1826 -0.334961 -20.9971 -0.334961h-341.334c-9.53125 0 -7.90332 -0.188477 -20.9971 0.334961c-0.0400391 0.986328 -0.335938 11.1836 -0.335938 20.998v213.333zM21.333 341.333v-213.333
c0 -47.4092 16.5908 -64 64 -64h341.334c47.4092 0 64 16.5908 64 64v213.333c0 47.4092 -16.5908 64 -64 64h-341.334c-47.4092 0 -64 -16.5908 -64 -64zM170.667 0v-21.333h170.666v21.333v21.333h-170.666v-21.333zM256 85.333h-21.333v-85.333h21.333h21.333v85.333
h-21.333z" />
    <glyph glyph-name="tablet" unicode="&#xf1e6;" 
d="M-618.667 1045.33c0 -9.53125 0.188477 -7.90332 -0.334961 -20.9971c-0.986328 -0.0400391 -11.1836 -0.335938 -20.998 -0.335938h-256c-9.53125 0 -7.9043 -0.188477 -20.998 0.335938c-0.0390625 0.985352 -0.334961 11.1826 -0.334961 20.9971v341.334
c0 9.53125 -0.188477 7.90332 0.334961 20.9971c0.986328 0.0400391 11.1836 0.335938 20.998 0.335938h256c9.53125 0 7.9043 0.188477 20.998 -0.335938c0.0390625 -0.985352 0.334961 -11.1826 0.334961 -20.9971v-341.334zM-576 1045.33v341.334
c0 47.4092 -16.5908 64 -64 64h-256c-47.4092 0 -64 -16.5908 -64 -64v-341.334c0 -47.4092 16.5908 -64 64 -64h256c47.4092 0 64 16.5908 64 64zM256 64z" />
    <glyph glyph-name="tv" unicode="&#xf1f7;" 
d="M64 256c0 9.53125 -0.188477 7.9043 0.335938 20.998c0.985352 0.0390625 11.1826 0.334961 20.9971 0.334961h341.334c9.53125 0 7.90332 0.188477 20.9971 -0.334961c0.0400391 -0.986328 0.335938 -11.1836 0.335938 -20.998v-234.667
c0 -9.53125 0.188477 -7.90332 -0.335938 -20.9971c-0.985352 -0.0400391 -11.1826 -0.335938 -20.9971 -0.335938h-341.334c-9.53125 0 -7.90332 -0.188477 -20.9971 0.335938c-0.0400391 0.985352 -0.335938 11.1826 -0.335938 20.9971v234.667zM21.333 256v-234.667
c0 -47.4092 16.5908 -64 64 -64h341.334c47.4092 0 64 16.5908 64 64v234.667c0 47.4092 -16.5908 64 -64 64h-341.334c-47.4092 0 -64 -16.5908 -64 -64zM362.667 405.333l-15.085 15.085l-91.582 -91.5811l-91.582 91.5811l-15.085 -15.085l-15.085 -15.085
l106.667 -106.666l15.085 -15.085l15.085 15.085l106.667 106.666z" />
    <glyph glyph-name="menu" unicode="&#xf198;" 
d="M64 192v-21.333h384v21.333v21.333h-384v-21.333zM64 320v-21.333h384v21.333v21.333h-384v-21.333zM64 64v-21.333h384v21.333v21.333h-384v-21.333z" />
    <glyph glyph-name="message-circle" unicode="&#xf199;" 
d="M276.16 362.699c78.1768 -4.30469 146.202 -71.7764 150.507 -149.953c0 -40.9951 -6.27246 -60.4639 -16.959 -81.6074c-23.666 -47.3662 -89.7695 -88.4541 -143.5 -88.4717c-18.9648 0 -54.0703 8.36719 -70.9805 16.9141l-7.93555 4.01074l-89.5576 -29.8574
l29.8574 89.5576l-4.01074 7.93555c-8.63477 17.083 -16.9141 51.5254 -16.9141 71.4316c0.0175781 52.8975 41.0859 119.374 88.5605 143.093c16.9102 8.54785 52.0156 16.915 70.9805 16.915c0 21.333 9.95215 0.0322266 9.95215 0.0322266zM469.333 202.208v11.7119
l-0.0322266 0.585938c-5.52832 100.407 -90.3877 185.267 -190.795 190.795l-0.585938 0.0322266h-11.7119c-28.0762 0 -65.1787 -8.84082 -90.2275 -21.502c-63.1914 -31.5723 -111.957 -110.346 -111.98 -181.157c0 -26.3037 6.87891 -56.7119 17.6357 -82.3252
l-37.874 -113.602l-13.4961 -40.4814l40.4814 13.4961l113.602 37.874c8.36133 -3.51172 57.2383 -17.6357 81.8594 -17.6357c71.7002 0.0244141 149.981 48.6494 181.668 112.069c12.5674 24.8633 21.457 62.1045 21.457 90.1387z" />
    <glyph glyph-name="airplay" unicode="&#xf101;" 
d="M106.667 85.333v21.334h-21.334c-11.7539 0 -21.333 9.5791 -21.333 21.333v213.333c0 11.7734 9.56934 21.334 21.333 21.334h341.334c11.7637 0 21.333 -9.56055 21.333 -21.334v-213.333c0 -11.7539 -9.5791 -21.333 -21.333 -21.333h-21.334v-21.334v-21.333h21.334
c35.3291 0 64 28.6709 64 64v213.333c0 35.3516 -28.6807 64 -64 64h-341.334c-35.3193 0 -64 -28.6484 -64 -64v-213.333c0 -35.3291 28.6709 -64 64 -64h21.334v21.333zM272.389 141.657l-16.3887 19.667l-16.3887 -19.667l-106.667 -128l-29.1582 -34.9902h45.5469
h213.334h45.5469l-29.1582 34.9902zM256 94.6758l61.1191 -73.3428h-122.238z" />
    <glyph glyph-name="send" unicode="&#xf1cd;" 
d="M469.333 405.333l-15.085 15.085l-234.666 -234.666l15.085 -15.085l15.085 -15.085l234.666 234.666zM489.469 398.286l14.6377 41.8203l-41.8203 -14.6377l-426.667 -149.333l-50.7891 -17.7764l49.1719 -21.8545l184.503 -82l82 -184.503l21.8545 -49.1719
l17.7764 50.7891zM434.561 370.561l-116.92 -334.058l-63.4795 142.828l-3.33203 7.49805l-7.49805 3.33203l-142.828 63.4795z" />
    <glyph glyph-name="terminal" unicode="&#xf1e9;" 
d="M85.333 85.333l15.085 -15.085l128 128l15.085 15.085l-15.085 15.085l-128 128l-15.085 -15.085l-15.085 -15.085l112.915 -112.915l-112.915 -112.915zM256 42.667v-21.334h170.667v21.334v21.333h-170.667v-21.333z" />
    <glyph glyph-name="download-cloud" unicode="&#xf159;" 
d="M170.667 85.333l-15.085 -15.085l85.333 -85.333l15.085 -15.085l11.3135 11.3135l3.77148 3.77148l85.333 85.333l-15.085 15.085l-15.085 15.085l-70.248 -70.248l-70.248 70.248zM256 192h-21.333v-192h21.333h21.333v192h-21.333zM445.438 62.083l12.2656 -17.4541
c31.5957 22.2031 54.3799 66.0957 54.3799 104.704c0 70.6592 -57.2715 128 -128.083 128h-11.0977c-32.9482 80.4248 -104.307 128.25 -181.09 128.25c-105.992 0 -192 -86.0088 -192 -192c0 -42.1836 20.2461 -95.6582 48.2148 -127.246l15.9727 14.1426l15.9727 14.1416
c-19.3652 21.8701 -37.4932 69.7295 -37.4932 98.9619c0 82.4258 66.9082 149.334 149.333 149.334c62.8027 0 129.037 -51.3848 144.648 -112.22l4.11426 -16.0303h16.5498h26.875c47.2432 0 85.417 -38.2432 85.417 -85.334
c0 -22.5576 -17.7988 -56.832 -36.2451 -69.7949z" />
    <glyph glyph-name="minus-square" unicode="&#xf1a1;" 
d="M85.333 341.333c0 9.53125 -0.1875 7.9043 0.335938 20.998c0.986328 0.0400391 11.1836 0.335938 20.998 0.335938h298.666c9.53125 0 7.9043 0.1875 20.998 -0.335938c0.0400391 -0.986328 0.335938 -11.1836 0.335938 -20.998v-298.666
c0 -9.53125 0.1875 -7.9043 -0.335938 -20.998c-0.986328 -0.0400391 -11.1836 -0.335938 -20.998 -0.335938h-298.666c-9.53125 0 -7.9043 -0.1875 -20.998 0.335938c-0.0400391 0.986328 -0.335938 11.1836 -0.335938 20.998v298.666zM42.667 341.333v-298.666
c0 -47.4092 16.5908 -64 64 -64h298.666c47.4092 0 64 16.5908 64 64v298.666c0 47.4092 -16.5908 64 -64 64h-298.666c-47.4092 0 -64 -16.5908 -64 -64zM170.667 192v-21.333h170.666v21.333v21.333h-170.666v-21.333z" />
    <glyph glyph-name="paperclip" unicode="&#xf1ad;" 
d="M457.396 212.271l-15.085 15.085l-196.062 -196.062c-15.8281 -15.8281 -53.0771 -31.251 -75.4775 -31.251c-58.9033 0 -106.729 47.8252 -106.729 106.729c0 22.4004 15.4229 59.6494 31.251 75.4775l196.062 196.062c8.91113 8.91113 32.667 18.752 45.29 18.752
c35.3418 0 64.042 -28.7002 64.042 -64.042c0 -12.6201 -9.84863 -36.3867 -18.7432 -45.2812l-196.279 -196.071c-2.00879 -2.00879 -12.2529 -6.25098 -15.1025 -6.25098c-11.7783 0 -21.3545 9.5752 -21.3545 21.3535c0 2.87109 4.24219 13.0928 6.24316 15.0938
l181.125 180.917l-15.0762 15.0938l-15.0762 15.0938l-181.125 -180.917c-11.79 -11.79 -18.7568 -28.6104 -18.7568 -45.2812c0 -35.3457 28.6738 -64.0205 64.0205 -64.0205c16.6504 0 33.4902 6.96582 45.2725 18.748l196.263 196.055
c18.6885 18.6885 31.2568 49.0469 31.2568 75.4678c0 58.9092 -47.7998 106.709 -106.709 106.709c-26.418 0 -56.7871 -12.5762 -75.46 -31.249l-196.062 -196.062c-25.5879 -25.5879 -43.748 -69.4639 -43.748 -105.647c0 -82.4707 66.9248 -149.396 149.396 -149.396
c36.1836 0 80.0596 18.1602 105.647 43.748l196.062 196.062z" />
    <glyph glyph-name="stop-circle" unicode="&#xf1e2;" 
d="M64 192c0 106.033 85.9668 192 192 192s192 -85.9668 192 -192s-85.9668 -192 -192 -192s-192 85.9668 -192 192zM21.333 192c0 -129.592 105.075 -234.667 234.667 -234.667s234.667 105.075 234.667 234.667s-105.075 234.667 -234.667 234.667
s-234.667 -105.075 -234.667 -234.667zM213.333 149.333v85.334h85.334v-85.334h-85.334zM192 106.667h128h21.333v21.333v128v21.333h-21.333h-128h-21.333v-21.333v-128v-21.333h21.333z" />
    <glyph glyph-name="mail" unicode="&#xf192;" 
d="M85.333 384c-35.2754 0 -64 -28.7246 -64 -64v-256c0 -35.2754 28.7246 -64 64 -64h341.334c35.2754 0 64 28.7246 64 64v256c0 35.2754 -28.7246 64 -64 64h-341.334zM85.333 341.333h341.334c11.6406 0 21.333 -9.69141 21.333 -21.333v-256
c0 -11.6416 -9.69238 -21.333 -21.333 -21.333h-341.334c-11.6406 0 -21.333 9.69141 -21.333 21.333v256c0 11.6416 9.69238 21.333 21.333 21.333zM469.333 320l-12.2334 17.4766l-201.1 -140.77l-201.1 140.77l-12.2334 -17.4766l-12.2344 -17.4766l213.334 -149.334
l12.2334 -8.56348l12.2334 8.56348l213.334 149.334z" />
    <glyph glyph-name="circle" unicode="&#xf137;" 
d="M64 192c0 106.033 85.9668 192 192 192s192 -85.9668 192 -192s-85.9668 -192 -192 -192s-192 85.9668 -192 192zM21.333 192c0 -129.592 105.075 -234.667 234.667 -234.667s234.667 105.075 234.667 234.667s-105.075 234.667 -234.667 234.667
s-234.667 -105.075 -234.667 -234.667z" />
    <glyph glyph-name="save" unicode="&#xf1ca;" 
d="M405.333 -21.333c35.3428 0 64 28.6572 64 64v234.666v8.83691l-6.24805 6.24805l-106.667 106.667l-6.24805 6.24805h-8.83691h-234.666c-35.3428 0 -64 -28.6572 -64 -64v-298.666c0 -35.3428 28.6572 -64 64 -64h298.666zM405.333 21.333h-298.666
c-11.7832 0 -21.334 9.55078 -21.334 21.334v298.666c0 11.7832 9.55078 21.334 21.334 21.334h225.83l94.1699 -94.1699v-225.83c0 -11.7832 -9.55078 -21.334 -21.334 -21.334zM362.667 0h21.333v170.667v21.333h-21.333h-213.334h-21.333v-21.333v-170.667h21.333h21.334
v149.333h170.666v-149.333h21.334zM149.333 384h-21.333v-106.667v-21.333h21.333h170.667v21.333v21.334h-149.333v85.333h-21.334z" />
    <glyph glyph-name="columns" unicode="&#xf144;" 
d="M256 384v-21.333h149.333c11.7832 0 21.334 -9.55078 21.334 -21.334v-298.666c0 -11.7832 -9.55078 -21.334 -21.334 -21.334h-149.333v-21.333v-21.333h149.333c35.3428 0 64 28.6572 64 64v298.666c0 35.3428 -28.6572 64 -64 64h-149.333v-21.333zM256 384v21.333
h-149.333c-35.3428 0 -64 -28.6572 -64 -64v-298.666c0 -35.3428 28.6572 -64 64 -64h149.333v21.333v21.333h-149.333c-11.7832 0 -21.334 9.55078 -21.334 21.334v298.666c0 11.7832 9.55078 21.334 21.334 21.334h149.333v21.333zM256 384h-21.333v-384h21.333h21.333
v384h-21.333zM256 384v21.333h-149.333c-35.3428 0 -64 -28.6572 -64 -64v-298.666c0 -35.3428 28.6572 -64 64 -64h149.333v21.333v21.333h-149.333c-11.7832 0 -21.334 9.55078 -21.334 21.334v298.666c0 11.7832 9.55078 21.334 21.334 21.334h149.333v21.333zM256 384
h-21.333v-384h21.333h21.333v384h-21.333zM256 384h-21.333v-384h21.333h21.333v384h-21.333z" />
    <glyph glyph-name="sunset" unicode="&#xf1e5;" 
d="M362.667 64h21.333c0 70.6592 -57.3408 128 -128 128s-128 -57.3408 -128 -128h21.333h21.334c0 47.0908 38.2422 85.333 85.333 85.333s85.333 -38.2422 85.333 -85.333h21.334zM256 256h21.333v149.333h-21.333h-21.333v-149.333h21.333zM90.0205 229.979
l-15.085 -15.085l30.292 -30.292l15.085 15.085l15.085 15.085l-30.292 30.292zM21.333 64v-21.333h42.667v21.333v21.333h-42.667v-21.333zM448 64v-21.333h42.667v21.333v21.333h-42.667v-21.333zM391.688 199.688l15.085 -15.085l30.292 30.292l-15.085 15.085
l-15.085 15.085l-30.292 -30.292zM490.667 -21.333v21.333h-469.334v-21.333v-21.334h469.334v21.334zM341.333 341.333l-15.085 15.085l-70.248 -70.248l-70.248 70.248l-15.085 -15.085l-15.085 -15.085l85.333 -85.333l15.085 -15.085l15.085 15.085l85.333 85.333z" />
    <glyph glyph-name="coffee" unicode="&#xf143;" 
d="M384 277.333v-21.333h21.333c35.3213 0 64 -28.6787 64 -64s-28.6787 -64 -64 -64h-21.333v-21.333v-21.334h21.333c58.8877 0 106.667 47.7793 106.667 106.667s-47.7793 106.667 -106.667 106.667h-21.333v-21.334zM42.667 298.667h-21.334v-21.334v-192
c0 -58.8867 47.7793 -106.666 106.667 -106.666h170.667c58.8867 0 106.666 47.7793 106.666 106.666v192v21.334h-21.333h-341.333zM64 256h298.667v-170.667c0 -35.3203 -28.6797 -64 -64 -64h-170.667c-35.3213 0 -64 28.6797 -64 64v170.667zM128 426.667h-21.333v-64
h21.333h21.333v64h-21.333zM213.333 426.667h-21.333v-64h21.333h21.334v64h-21.334zM298.667 426.667h-21.334v-64h21.334h21.333v64h-21.333z" />
    <glyph glyph-name="smartphone" unicode="&#xf1dd;" 
d="M128 362.667c0 9.53125 -0.188477 7.90332 0.335938 20.9971c0.985352 0.0400391 11.1826 0.335938 20.9971 0.335938h213.334c9.53125 0 7.90332 0.188477 20.9971 -0.335938c0.0400391 -0.985352 0.335938 -11.1826 0.335938 -20.9971v-341.334
c0 -9.53125 0.188477 -7.90332 -0.335938 -20.9971c-0.985352 -0.0400391 -11.1826 -0.335938 -20.9971 -0.335938h-213.334c-9.53125 0 -7.90332 -0.188477 -20.9971 0.335938c-0.0400391 0.985352 -0.335938 11.1826 -0.335938 20.9971v341.334zM85.333 362.667v-341.334
c0 -47.4092 16.5908 -64 64 -64h213.334c47.4092 0 64 16.5908 64 64v341.334c0 47.4092 -16.5908 64 -64 64h-213.334c-47.4092 0 -64 -16.5908 -64 -64zM256 64z" />
    <glyph glyph-name="pen-tool" unicode="&#xf1b0;" 
d="M240.915 57.752l-15.085 -15.085l15.085 -15.085l64 -64l15.085 -15.085l15.085 15.085l149.333 149.333l15.085 15.085l-15.085 15.085l-64 64l-15.085 15.085l-15.085 -15.085zM286.17 42.667l119.163 119.163l33.8301 -33.8301l-119.163 -119.163zM360.842 177.679
l-90.5205 -90.5205l-135.446 27.0889l-63.2793 262.157l262.157 -63.2793zM404.919 174.851l-32 160l-2.67188 13.3574l-13.2412 3.19629l-309.334 74.667l-33.9336 8.19043l8.19043 -33.9336l74.667 -309.334l3.19629 -13.2412l13.3574 -2.67188l160 -32l11.1953 -2.23926
l8.07324 8.07324l106.667 106.667l8.07324 8.07324zM42.667 405.333l-15.085 -15.085l161.833 -161.833l15.085 15.085l15.085 15.085l-161.833 161.833zM213.333 213.333c0 11.7832 9.55078 21.334 21.334 21.334c11.7822 0 21.333 -9.55078 21.333 -21.334
c0 -11.7822 -9.55078 -21.333 -21.333 -21.333c-11.7832 0 -21.334 9.55078 -21.334 21.333zM170.667 213.333c0 -35.3418 28.6572 -64 64 -64c35.3418 0 64 28.6582 64 64c0 35.3428 -28.6582 64 -64 64c-35.3428 0 -64 -28.6572 -64 -64z" />
    <glyph glyph-name="frown" unicode="&#xf170;" 
d="M64 192c0 106.033 85.9668 192 192 192s192 -85.9668 192 -192s-85.9668 -192 -192 -192s-192 85.9668 -192 192zM21.333 192c0 -129.592 105.075 -234.667 234.667 -234.667s234.667 105.075 234.667 234.667s-105.075 234.667 -234.667 234.667
s-234.667 -105.075 -234.667 -234.667zM341.333 106.667l16.6035 13.3955c-0.0673828 0.0830078 -37.0381 50.6045 -101.937 50.6045s-101.869 -50.5215 -101.937 -50.6045l16.6035 -13.3955l16.6025 -13.3965s26.9121 34.7295 68.7305 34.7295
s68.7305 -34.7295 68.7305 -34.7295z" />
    <glyph glyph-name="x-circle" unicode="&#xf212;" 
d="M64 192c0 106.033 85.9668 192 192 192s192 -85.9668 192 -192s-85.9668 -192 -192 -192s-192 85.9668 -192 192zM21.333 192c0 -129.592 105.075 -234.667 234.667 -234.667s234.667 105.075 234.667 234.667s-105.075 234.667 -234.667 234.667
s-234.667 -105.075 -234.667 -234.667zM320 256l-15.085 15.085l-128 -128l15.085 -15.085l15.085 -15.085l128 128zM192 256l-15.085 -15.085l128 -128l15.085 15.085l15.085 15.085l-128 128z" />
    <glyph glyph-name="arrow-up-left" unicode="&#xf116;" 
d="M362.667 85.333l15.085 15.085l-213.334 213.334l-15.085 -15.085l-15.085 -15.085l213.334 -213.334zM149.333 85.333h21.334v192h192v21.334v21.333h-213.334h-21.333v-21.333v-213.334h21.333z" />
    <glyph glyph-name="thermometer" unicode="&#xf1ea;" 
d="M277.333 133.125v-11.3945l9.4707 -6.33691c16.7559 -11.209 33.1963 -41.957 33.1963 -62.1016c0 -41.1982 -33.4531 -74.667 -74.667 -74.667s-74.666 33.4688 -74.666 74.667c0 20.1445 16.4404 50.8926 33.1953 62.1016l9.4707 6.33691v11.3945v240.208
c0 17.6533 14.3467 32 32 32s32 -14.3467 32 -32v-240.208zM320 143.88v229.453c0 41.2217 -33.4453 74.667 -74.667 74.667s-74.666 -33.4453 -74.666 -74.667v-229.453c-31.8037 -31.7949 -42.667 -57.7539 -42.667 -90.5879
c0 -64.7607 52.5469 -117.334 117.333 -117.334s117.334 52.5732 117.334 117.334c0 35.0215 -21.3281 69.2549 -42.667 90.5879z" />
    <glyph glyph-name="chevrons-down" unicode="&#xf132;" 
d="M149.333 170.667l-15.085 -15.085l106.667 -106.667l15.085 -15.085l11.3135 11.3135l3.77148 3.77148l106.667 106.667l-15.085 15.085l-15.085 15.085l-91.582 -91.582l-91.582 91.582zM149.333 320l-15.085 -15.085l106.667 -106.667l15.085 -15.085l11.3135 11.3145
l3.77148 3.77051l106.667 106.667l-15.085 15.085l-15.085 15.085l-91.582 -91.582l-91.582 91.582z" />
    <glyph glyph-name="file-text" unicode="&#xf168;" 
d="M289.83 384l115.503 -115.503v-247.164c0 -11.7539 -9.5791 -21.333 -21.333 -21.333h-256c-11.7539 0 -21.333 9.5791 -21.333 21.333v341.334c0 11.7539 9.5791 21.333 21.333 21.333h161.83zM298.667 426.667h-170.667c-35.3291 0 -64 -28.6709 -64 -64v-341.334
c0 -35.3291 28.6709 -64 64 -64h256c35.3291 0 64 28.6709 64 64v256v8.83691l-6.24805 6.24805l-128 128l-6.24902 6.24902h-8.83594zM298.667 405.333h-21.334v-128v-21.333h21.334h128v21.333v21.334h-106.667v106.666h-21.333zM341.333 170.667v21.333h-170.666v-21.333
v-21.334h170.666v21.334zM341.333 85.333v21.334h-170.666v-21.334v-21.333h170.666v21.333zM213.333 256v21.333h-21.333h-21.333v-21.333v-21.333h21.333h21.333v21.333z" />
    <glyph glyph-name="grid" unicode="&#xf179;" 
d="M85.333 256v106.667h106.667v-106.667h-106.667zM64 213.333h149.333h21.334v21.334v149.333v21.333h-21.334h-149.333h-21.333v-21.333v-149.333v-21.334h21.333zM320 256v106.667h106.667v-106.667h-106.667zM298.667 213.333h149.333h21.333v21.334v149.333v21.333
h-21.333h-149.333h-21.334v-21.333v-149.333v-21.334h21.334zM320 21.333v106.667h106.667v-106.667h-106.667zM298.667 -21.333h149.333h21.333v21.333v149.333v21.334h-21.333h-149.333h-21.334v-21.334v-149.333v-21.333h21.334zM85.333 21.333v106.667h106.667v-106.667
h-106.667zM64 -21.333h149.333h21.334v21.333v149.333v21.334h-21.334h-149.333h-21.333v-21.334v-149.333v-21.333h21.333z" />
    <glyph glyph-name="twitch" unicode="&#xf1f8;" 
d="M426.667 384v-225.83l-72.8369 -72.8369h-97.8301h-8.83691l-6.24805 -6.24805l-48.915 -48.915v33.8301v21.333h-21.333h-85.334v298.667h341.334zM448 426.667h-384h-21.333v-21.334v-341.333v-21.333h21.333h85.333v-64v-51.5039l36.4189 36.4189l79.085 79.085
h97.8301h8.83594l6.24902 6.24805l85.333 85.333l6.24805 6.24902v8.83594v256v21.334h-21.333zM234.667 213.333h21.333v85.334h-21.333h-21.334v-85.334h21.334zM341.333 213.333h21.334v85.334h-21.334h-21.333v-85.334h21.333zM234.667 213.333h21.333v85.334h-21.333
h-21.334v-85.334h21.334zM341.333 213.333h21.334v85.334h-21.334h-21.333v-85.334h21.333zM341.333 213.333h21.334v85.334h-21.334h-21.333v-85.334h21.333z" />
    <glyph glyph-name="at-sign" unicode="&#xf118;" 
d="M192 192c0 35.3457 28.6543 64 64 64s64 -28.6543 64 -64s-28.6543 -64 -64 -64s-64 28.6543 -64 64zM149.333 192c0 -58.9043 47.7627 -106.667 106.667 -106.667s106.667 47.7627 106.667 106.667s-47.7627 106.667 -106.667 106.667
s-106.667 -47.7627 -106.667 -106.667zM341.333 277.333h-21.333v-106.666c0 -47.1162 38.2178 -85.334 85.333 -85.334c47.1162 0 85.334 38.2178 85.334 85.334v21.333c0 129.536 -105.136 234.646 -234.667 234.646c-129.532 0 -234.667 -105.111 -234.667 -234.666
c0 -129.534 105.133 -234.667 234.667 -234.667c45.9023 0 106.243 20.4707 142.674 48.3506l-12.9658 16.9414l-12.9648 16.9414c-26.9443 -20.6201 -82.8125 -39.5664 -116.743 -39.5664c-105.966 0 -192 86.0332 -192 192c0 105.986 86.0322 192 192 192
c105.969 0 192 -86.0156 192 -191.979v-21.333c0 -23.5518 -19.1152 -42.667 -42.667 -42.667c-23.5508 0 -42.666 19.1152 -42.666 42.667v106.666h-21.334z" />
    <glyph glyph-name="compass" unicode="&#xf146;" 
d="M64 192c0 106.033 85.9668 192 192 192s192 -85.9668 192 -192s-85.9668 -192 -192 -192s-192 85.9668 -192 192zM21.333 192c0 -129.592 105.075 -234.667 234.667 -234.667s234.667 105.075 234.667 234.667s-105.075 234.667 -234.667 234.667
s-234.667 -105.075 -234.667 -234.667zM366.697 275.712l13.4922 40.4775l-40.4775 -13.4922l-135.688 -45.2295l-10.1191 -3.37305l-3.37305 -10.1191l-45.2295 -135.688l-13.4922 -40.4775l40.4775 13.4922l135.688 45.2295l10.1191 3.37305l3.37305 10.1191z
M312.728 248.728l-28.3643 -85.0908l-85.0908 -28.3643l28.3643 85.0908z" />
    <glyph glyph-name="corner-up-right" unicode="&#xf14f;" 
d="M320 149.333l15.085 -15.085l106.667 106.667l15.085 15.085l-11.3145 11.3135l-3.77051 3.77148l-106.667 106.667l-15.085 -15.085l-15.085 -15.085l91.582 -91.582l-91.582 -91.582zM85.333 21.333h21.334v149.334c0 35.3203 28.6787 64 64 64h256v21.333v21.333h-256
c-58.8877 0 -106.667 -47.7793 -106.667 -106.666v-149.334h21.333z" />
    <glyph glyph-name="phone-forwarded" unicode="&#xf1b4;" 
d="M405.333 426.667l-15.085 -15.085l70.249 -70.249l-70.249 -70.248l15.085 -15.085l15.085 -15.085l85.334 85.333l15.085 15.085l-15.085 15.085l-85.334 85.334zM320 341.333v-21.333h170.667v21.333v21.334h-170.667v-21.334zM365.23 125.283
c18.2451 -6.80664 45.3926 -13.5605 64.5303 -16.0664c9.23047 -1.31055 18.25 -12.0234 18.25 -21.6436l-0.0107422 -64.6982c0 -11.7734 -10.3936 -21.333 -22.4766 -21.333c-50.792 5.50879 -132.307 34.4121 -175.358 62.3418
c-39.6396 25.1719 -96.1836 81.6738 -121.535 121.596c-27.8027 42.8906 -56.8281 125.103 -62.2344 176.054c0 12.0674 9.57031 22.4561 21.292 22.4668h64.417c9.50098 0 19.8027 -9.02051 21.1123 -18.2393c2.50586 -19.1377 9.25977 -46.2852 16.0664 -64.5303z
M190.667 293.688c0 -2.79785 -4.27246 -13.1006 -6.06445 -14.915l-38.6035 -38.6035l8.04199 -14.1348c28.1494 -49.4785 86.5146 -107.844 135.993 -135.993l14.1348 -8.04199l38.5117 38.5117c1.99512 1.9707 12.1729 6.15625 15.0068 6.15625zM490.677 87.5732
c0 31.5781 -23.876 59.4795 -55.1465 63.9189c-14.9033 1.95117 -41.4648 8.57324 -55.3857 13.7666l-10.9229 4.07422h-11.5342c-16.541 0 -33.2383 -6.85645 -44.9932 -18.4688c-15.084 -15.085 -0.126953 -0.126953 -15.2119 -15.2119
c-27.749 19.2285 -71.334 59.5938 -97.8301 97.8301l15.1201 15.1201c11.791 11.9355 18.5605 28.5078 18.5605 45.085v11.5342l-4.07422 10.9229c-5.19336 13.9209 -11.8154 40.4824 -13.7666 55.3857c-4.44141 31.2812 -31.9727 55.1367 -63.3877 55.1367h-64.417
c-35.3613 -0.03125 -63.958 -28.709 -63.958 -64v-3.3916l0.285156 -2.69238c6.35742 -59.9189 36.0332 -143.744 68.8135 -194.312c29.5244 -46.4941 87.6875 -104.701 134.465 -134.404c49.9482 -32.4043 133.678 -62.2402 193.24 -68.7002l2.68359 -0.291016h3.4502
c35.3193 0 64 28.6484 64 64z" />
    <glyph glyph-name="target" unicode="&#xf1e8;" 
d="M64 192c0 106.033 85.9668 192 192 192s192 -85.9668 192 -192s-85.9668 -192 -192 -192s-192 85.9668 -192 192zM21.333 192c0 -129.592 105.075 -234.667 234.667 -234.667s234.667 105.075 234.667 234.667s-105.075 234.667 -234.667 234.667
s-234.667 -105.075 -234.667 -234.667zM149.333 192c0 58.9082 47.7588 106.667 106.667 106.667s106.667 -47.7588 106.667 -106.667s-47.7588 -106.667 -106.667 -106.667s-106.667 47.7588 -106.667 106.667zM106.667 192c0 -82.4668 66.8662 -149.333 149.333 -149.333
s149.333 66.8662 149.333 149.333s-66.8662 149.333 -149.333 149.333s-149.333 -66.8662 -149.333 -149.333zM234.667 192c0 11.7822 9.55078 21.333 21.333 21.333s21.333 -9.55078 21.333 -21.333s-9.55078 -21.333 -21.333 -21.333s-21.333 9.55078 -21.333 21.333z
M192 192c0 -35.3428 28.6572 -64 64 -64s64 28.6572 64 64s-28.6572 64 -64 64s-64 -28.6572 -64 -64z" />
    <glyph glyph-name="bell-off" unicode="&#xf11f;" 
d="M292.917 0l-18.4482 10.7148c-2.50684 -4.31641 -13.4775 -10.6318 -18.4688 -10.6318s-15.9619 6.31543 -18.4688 10.6318l-18.4482 -10.7148l-18.4473 -10.7148c11.1182 -19.1416 33.2305 -31.8682 55.3643 -31.8682s44.2461 12.7266 55.3643 31.8682zM362.625 271.229
c0 -31.0176 6.06641 -76.2627 14.2324 -106.18l41.1602 11.2344c-6.70898 24.582 -12.7256 69.4619 -12.7256 94.9453h-42.667zM133.542 314.458l-20.3877 6.2832c-4.01562 -13.0312 -6.4873 -29.3027 -6.4873 -43.4082c0 -144.823 -54.9814 -174.579 -54.9814 -174.579
l-54.8223 -38.7539h67.1367h298.667v21.333v21.334h-252.796c14.7275 24.8525 39.4619 83.6084 39.4619 170.666c0 7.96875 2.39453 23.6982 4.5957 30.8428zM384 277.521h21.333c0 82.4492 -66.8848 149.334 -149.333 149.334
c-26.9189 0 -60.4951 -10.1846 -82.875 -25.1045l11.833 -17.75l11.834 -17.75c13.2451 8.83008 43.2939 17.9375 59.208 17.9375c58.8848 0 106.667 -47.7822 106.667 -106.667h21.333zM21.333 426.667l-15.085 -15.085l469.334 -469.334l15.085 15.085l15.085 15.085
l-469.334 469.334z" />
    <glyph glyph-name="gift" unicode="&#xf171;" 
d="M426.667 192h-21.334v-192h-298.666v192h-21.334h-21.333v-213.333v-21.334h21.333h341.334h21.333v21.334v213.333h-21.333zM64 213.333v64h384v-64h-384zM42.667 170.667h426.666h21.334v21.333v106.667v21.333h-21.334h-426.666h-21.334v-21.333v-106.667v-21.333
h21.334zM256 -21.333h21.333v320h-21.333h-21.333v-320h21.333zM256 277.333h26.4131l-5.55762 25.8223s-19.4375 123.512 -116.855 123.512c-41.2217 0 -74.667 -33.4453 -74.667 -74.667s33.4453 -74.667 74.667 -74.667h96zM227.347 320h-67.3467
c-17.6533 0 -32 14.3467 -32 32s14.3467 32 32 32c34.6426 0 55.6152 -35.3867 67.3467 -64zM284.653 320c11.7314 28.6133 32.7041 64 67.3467 64c17.6533 0 32 -14.3467 32 -32s-14.3467 -32 -32 -32h-67.3467zM256 277.333h96c41.2217 0 74.667 33.4453 74.667 74.667
s-33.4453 74.667 -74.667 74.667c-97.418 0 -116.855 -123.512 -116.855 -123.512l-5.55762 -25.8223h26.4131z" />
    <glyph glyph-name="chevrons-left" unicode="&#xf133;" 
d="M234.667 85.333l15.085 15.085l-91.582 91.582l91.582 91.582l-15.085 15.085l-15.085 15.085l-106.667 -106.667l-15.085 -15.085l15.085 -15.085l106.667 -106.667zM384 85.333l15.085 15.085l-91.582 91.582l91.582 91.582l-15.085 15.085l-15.085 15.085
l-106.667 -106.667l-15.085 -15.085l15.085 -15.085l106.667 -106.667z" />
    <glyph glyph-name="edit" unicode="&#xf15b;" 
d="M234.667 362.667v21.333h-149.334c-35.3291 0 -64 -28.6709 -64 -64v-298.667c0 -35.3291 28.6709 -64 64 -64h298.667c35.3291 0 64 28.6709 64 64v149.334h-21.333h-21.334v-149.334c0 -11.7539 -9.5791 -21.333 -21.333 -21.333h-298.667
c-11.7539 0 -21.333 9.5791 -21.333 21.333v298.667c0 11.7539 9.5791 21.333 21.333 21.333h149.334v21.334zM379.582 409.752l-202.667 -202.667l-4.17871 -4.17871l-1.43262 -5.73242l-21.333 -85.333l-8.62402 -34.4941l34.4941 8.62402l85.333 21.333l5.73242 1.43262
l4.17871 4.17871l202.667 202.667c12.1914 12.1914 19.498 29.8359 19.498 47.085c0 36.7617 -29.8213 66.583 -66.583 66.583c-17.249 0 -34.8936 -7.30664 -47.085 -19.498zM409.752 379.582c2.43359 2.43359 13.4551 7.00098 16.915 7.00098
c13.1953 0 23.916 -10.7207 23.916 -23.916c0 -3.45996 -4.56738 -14.4814 -7.00098 -16.915l-198.488 -198.488l-45.1074 -11.2773l11.2773 45.1074z" />
    <glyph glyph-name="folder-minus" unicode="&#xf16d;" 
d="M490.667 42.667v234.666c0 35.3516 -28.6807 64 -64 64h-180.583l-36.334 54.501l-6.33301 9.49902h-11.417h-106.667c-35.3193 0 -64 -28.6484 -64 -64v-298.666c0 -35.3516 28.6807 -64 64 -64h341.334c35.3193 0 64 28.6484 64 64zM448 42.667
c0 -11.7734 -9.56934 -21.334 -21.333 -21.334h-341.334c-11.7637 0 -21.333 9.56055 -21.333 21.334v298.666c0 11.7734 9.56934 21.334 21.333 21.334h95.25l36.333 -54.501l6.33301 -9.49902h11.418h192c11.7637 0 21.333 -9.56055 21.333 -21.334v-234.666zM192 149.333
v-21.333h128v21.333v21.334h-128v-21.334z" />
    <glyph glyph-name="list" unicode="&#xf18d;" 
d="M170.667 320v-21.333h277.333v21.333v21.333h-277.333v-21.333zM170.667 192v-21.333h277.333v21.333v21.333h-277.333v-21.333zM170.667 64v-21.333h277.333v21.333v21.333h-277.333v-21.333zM64 320zM64 192zM64 64z" />
    <glyph glyph-name="upload" unicode="&#xf1fe;" 
d="M448 128h-21.333v-85.333c0 -11.7832 -9.55078 -21.334 -21.334 -21.334h-298.666c-11.7832 0 -21.334 9.55078 -21.334 21.334v85.333h-21.333h-21.333v-85.333c0 -35.3428 28.6572 -64 64 -64h298.666c35.3428 0 64 28.6572 64 64v85.333h-21.333zM362.667 277.333
l15.085 15.085l-106.667 106.667l-15.085 15.085l-15.085 -15.085l-106.667 -106.667l15.085 -15.085l15.085 -15.085l91.582 91.582l91.582 -91.582zM256 384h-21.333v-256h21.333h21.333v256h-21.333z" />
    <glyph glyph-name="server" unicode="&#xf1ce;" 
d="M64 362.667c0 9.53125 -0.188477 7.90332 0.335938 20.9971c0.985352 0.0400391 11.1826 0.335938 20.9971 0.335938h341.334c9.53125 0 7.90332 0.188477 20.9971 -0.335938c0.0400391 -0.985352 0.335938 -11.1826 0.335938 -20.9971v-85.334
c0 -9.53125 0.188477 -7.90332 -0.335938 -20.9971c-0.985352 -0.0400391 -11.1826 -0.335938 -20.9971 -0.335938h-341.334c-9.53125 0 -7.90332 -0.188477 -20.9971 0.335938c-0.0400391 0.985352 -0.335938 11.1826 -0.335938 20.9971v85.334zM21.333 362.667v-85.334
c0 -47.4092 16.5908 -64 64 -64h341.334c47.4092 0 64 16.5908 64 64v85.334c0 47.4092 -16.5908 64 -64 64h-341.334c-47.4092 0 -64 -16.5908 -64 -64zM64 106.667c0 9.53125 -0.188477 7.90332 0.335938 20.9971c0.985352 0.0400391 11.1826 0.335938 20.9971 0.335938
h341.334c9.53125 0 7.90332 0.188477 20.9971 -0.335938c0.0400391 -0.985352 0.335938 -11.1826 0.335938 -20.9971v-85.334c0 -9.53125 0.188477 -7.90332 -0.335938 -20.9971c-0.985352 -0.0400391 -11.1826 -0.335938 -20.9971 -0.335938h-341.334
c-9.53125 0 -7.90332 -0.188477 -20.9971 0.335938c-0.0400391 0.985352 -0.335938 11.1826 -0.335938 20.9971v85.334zM21.333 106.667v-85.334c0 -47.4092 16.5908 -64 64 -64h341.334c47.4092 0 64 16.5908 64 64v85.334c0 47.4092 -16.5908 64 -64 64h-341.334
c-47.4092 0 -64 -16.5908 -64 -64zM128 320zM128 64z" />
    <glyph glyph-name="git-pull-request" unicode="&#xf175;" 
d="M341.333 64c0 23.5771 19.0898 42.667 42.667 42.667s42.667 -19.0898 42.667 -42.667s-19.0898 -42.667 -42.667 -42.667s-42.667 19.0898 -42.667 42.667zM298.667 64c0 -47.1309 38.2021 -85.333 85.333 -85.333s85.333 38.2021 85.333 85.333
s-38.2021 85.333 -85.333 85.333s-85.333 -38.2021 -85.333 -85.333zM85.333 320c0 23.5771 19.0898 42.667 42.667 42.667s42.667 -19.0898 42.667 -42.667s-19.0898 -42.667 -42.667 -42.667s-42.667 19.0898 -42.667 42.667zM42.667 320
c0 -47.1309 38.2021 -85.333 85.333 -85.333s85.333 38.2021 85.333 85.333s-38.2021 85.333 -85.333 85.333s-85.333 -38.2021 -85.333 -85.333zM277.333 320v-21.333h64c11.7832 0 21.334 -9.55078 21.334 -21.334v-149.333h21.333h21.333v149.333
c0 35.3428 -28.6572 64 -64 64h-64v-21.333zM128 256h-21.333v-256h21.333h21.333v256h-21.333z" />
    <glyph glyph-name="cloud-rain" unicode="&#xf13e;" horiz-adv-x="511" 
d="M309.458 170.667h-21.333v-170.667h21.333h21.334v170.667h-21.334zM138.792 170.667h-21.334v-170.667h21.334h21.333v170.667h-21.333zM224.125 128h-21.333v-170.667h21.333h21.333v170.667h-21.333zM394.792 94.292l8.55762 -19.542
c43.7578 19.1631 76.6504 69.46 76.6504 117.25c0 70.5869 -57.2412 127.925 -127.875 128h-11.123c-33.0234 80.2666 -104.316 128 -181.002 128c-105.992 0 -192 -86.0088 -192 -192c0 -52.9482 30.7812 -116.94 72.1387 -149.998l13.3193 16.665l13.3203 16.6641
c-29.4346 23.5264 -56.1113 78.9922 -56.1113 116.669c0 82.4258 66.9082 149.333 149.333 149.333c62.7061 0 128.913 -51.2969 144.595 -112.002l4.13281 -15.998h16.5225h26.875c46.9912 -0.0498047 85.208 -38.2949 85.208 -85.333
c0 -29.21 -24.3564 -66.4551 -51.0996 -78.167z" />
    <glyph glyph-name="crosshair" unicode="&#xf153;" 
d="M64 192c0 106.033 85.9668 192 192 192s192 -85.9668 192 -192s-85.9668 -192 -192 -192s-192 85.9668 -192 192zM21.333 192c0 -129.592 105.075 -234.667 234.667 -234.667s234.667 105.075 234.667 234.667s-105.075 234.667 -234.667 234.667
s-234.667 -105.075 -234.667 -234.667zM469.333 192v21.333h-85.333v-21.333v-21.333h85.333v21.333zM128 192v21.333h-85.333v-21.333v-21.333h85.333v21.333zM256 320h21.333v85.333h-21.333h-21.333v-85.333h21.333zM256 -21.333h21.333v85.333h-21.333h-21.333v-85.333
h21.333z" />
    <glyph glyph-name="activity" unicode="&#xf100;" 
d="M469.333 192v21.333h-85.333h-15.376l-4.8623 -14.5869l-43.7617 -131.284l-107.762 323.284l-20.2383 60.7158l-20.2383 -60.7158l-59.1377 -177.413h-69.957v-21.333v-21.333h85.333h15.376l4.8623 14.5869l43.7617 131.284l107.762 -323.284l20.2383 -60.7158
l20.2383 60.7158l59.1377 177.413h69.957v21.333z" />
    <glyph glyph-name="x" unicode="&#xf211;" 
d="M384 320l-15.085 15.085l-256 -256l15.085 -15.085l15.085 -15.085l256 256zM128 320l-15.085 -15.085l256 -256l15.085 15.085l15.085 15.085l-256 256z" />
    <glyph glyph-name="chevron-down" unicode="&#xf12e;" 
d="M128 256l-15.085 -15.085l128 -128l15.085 -15.085l15.085 15.085l128 128l-15.085 15.085l-15.085 15.085l-112.915 -112.915l-112.915 112.915z" />
    <glyph glyph-name="phone-call" unicode="&#xf1b3;" 
d="M321.062 341.333l-4.09082 -20.9375c29.6377 -5.79102 61.6328 -37.7861 67.4238 -67.4238l20.9375 4.09082l20.9375 4.09082c-9.41699 48.1953 -52.9219 91.7002 -101.117 101.117zM321.062 426.667l-2.35645 -21.2031
c73.7783 -8.19922 142.47 -76.7969 150.761 -150.575l21.2002 2.38184l21.1992 2.38281c-10.625 94.5547 -93.8926 177.707 -188.447 188.216zM365.23 125.283c18.2451 -6.80664 45.3926 -13.5605 64.5303 -16.0664c9.23047 -1.31055 18.25 -12.0234 18.25 -21.6436
l-0.0107422 -64.6982c0 -11.7734 -10.3936 -21.333 -22.4766 -21.333c-50.792 5.50879 -132.307 34.4121 -175.358 62.3418c-39.6396 25.1719 -96.1836 81.6738 -121.535 121.596c-27.8027 42.8906 -56.8281 125.103 -62.2344 176.054
c0 12.0674 9.57031 22.4561 21.292 22.4668h64.417c9.50098 0 19.8027 -9.02051 21.1123 -18.2393c2.50586 -19.1377 9.25977 -46.2852 16.0664 -64.5303zM190.667 293.688c0 -2.79785 -4.27246 -13.1006 -6.06445 -14.915l-38.6035 -38.6035l8.04199 -14.1348
c28.1494 -49.4785 86.5146 -107.844 135.993 -135.993l14.1348 -8.04199l38.5117 38.5117c1.99512 1.9707 12.1729 6.15625 15.0068 6.15625zM490.677 87.5732c0 31.5781 -23.876 59.4795 -55.1465 63.9189c-14.9033 1.95117 -41.4648 8.57324 -55.3857 13.7666
l-10.9229 4.07422h-11.5342c-16.541 0 -33.2383 -6.85645 -44.9932 -18.4688c-15.084 -15.085 -0.126953 -0.126953 -15.2119 -15.2119c-27.749 19.2285 -71.334 59.5938 -97.8301 97.8301l15.1201 15.1201c11.791 11.9355 18.5605 28.5078 18.5605 45.085v11.5342
l-4.07422 10.9229c-5.19336 13.9209 -11.8154 40.4824 -13.7666 55.3857c-4.44141 31.2812 -31.9727 55.1367 -63.3877 55.1367h-64.417c-35.3613 -0.03125 -63.958 -28.709 -63.958 -64v-3.3916l0.285156 -2.69238c6.35742 -59.9189 36.0332 -143.744 68.8135 -194.312
c29.5244 -46.4941 87.6875 -104.701 134.465 -134.404c49.9482 -32.4043 133.678 -62.2402 193.24 -68.7002l2.68359 -0.291016h3.4502c35.3193 0 64 28.6484 64 64zM321.062 426.667l-2.35645 -21.2031c73.7783 -8.19922 142.47 -76.7969 150.761 -150.575l21.2002 2.38184
l21.1992 2.38281c-10.625 94.5547 -93.8926 177.707 -188.447 188.216zM365.23 125.283c18.2451 -6.80664 45.3926 -13.5605 64.5303 -16.0664c9.23047 -1.31055 18.25 -12.0234 18.25 -21.6436l-0.0107422 -64.6982c0 -11.7734 -10.3936 -21.333 -22.4766 -21.333
c-50.792 5.50879 -132.307 34.4121 -175.358 62.3418c-39.6396 25.1719 -96.1836 81.6738 -121.535 121.596c-27.8027 42.8906 -56.8281 125.103 -62.2344 176.054c0 12.0674 9.57031 22.4561 21.292 22.4668h64.417c9.50098 0 19.8027 -9.02051 21.1123 -18.2393
c2.50586 -19.1377 9.25977 -46.2852 16.0664 -64.5303zM190.667 293.688c0 -2.79785 -4.27246 -13.1006 -6.06445 -14.915l-38.6035 -38.6035l8.04199 -14.1348c28.1494 -49.4785 86.5146 -107.844 135.993 -135.993l14.1348 -8.04199l38.5117 38.5117
c1.99512 1.9707 12.1729 6.15625 15.0068 6.15625zM490.677 87.5732c0 31.5781 -23.876 59.4795 -55.1465 63.9189c-14.9033 1.95117 -41.4648 8.57324 -55.3857 13.7666l-10.9229 4.07422h-11.5342c-16.541 0 -33.2383 -6.85645 -44.9932 -18.4688
c-15.084 -15.085 -0.126953 -0.126953 -15.2119 -15.2119c-27.749 19.2285 -71.334 59.5938 -97.8301 97.8301l15.1201 15.1201c11.791 11.9355 18.5605 28.5078 18.5605 45.085v11.5342l-4.07422 10.9229c-5.19336 13.9209 -11.8154 40.4824 -13.7666 55.3857
c-4.44141 31.2812 -31.9727 55.1367 -63.3877 55.1367h-64.417c-35.3613 -0.03125 -63.958 -28.709 -63.958 -64v-3.3916l0.285156 -2.69238c6.35742 -59.9189 36.0332 -143.744 68.8135 -194.312c29.5244 -46.4941 87.6875 -104.701 134.465 -134.404
c49.9482 -32.4043 133.678 -62.2402 193.24 -68.7002l2.68359 -0.291016h3.4502c35.3193 0 64 28.6484 64 64zM365.23 125.283c18.2451 -6.80664 45.3926 -13.5605 64.5303 -16.0664c9.23047 -1.31055 18.25 -12.0234 18.25 -21.6436l-0.0107422 -64.6982
c0 -11.7734 -10.3936 -21.333 -22.4766 -21.333c-50.792 5.50879 -132.307 34.4121 -175.358 62.3418c-39.6396 25.1719 -96.1836 81.6738 -121.535 121.596c-27.8027 42.8906 -56.8281 125.103 -62.2344 176.054c0 12.0674 9.57031 22.4561 21.292 22.4668h64.417
c9.50098 0 19.8027 -9.02051 21.1123 -18.2393c2.50586 -19.1377 9.25977 -46.2852 16.0664 -64.5303zM190.667 293.688c0 -2.79785 -4.27246 -13.1006 -6.06445 -14.915l-38.6035 -38.6035l8.04199 -14.1348c28.1494 -49.4785 86.5146 -107.844 135.993 -135.993
l14.1348 -8.04199l38.5117 38.5117c1.99512 1.9707 12.1729 6.15625 15.0068 6.15625zM490.677 87.5732c0 31.5781 -23.876 59.4795 -55.1465 63.9189c-14.9033 1.95117 -41.4648 8.57324 -55.3857 13.7666l-10.9229 4.07422h-11.5342
c-16.541 0 -33.2383 -6.85645 -44.9932 -18.4688c-15.084 -15.085 -0.126953 -0.126953 -15.2119 -15.2119c-27.749 19.2285 -71.334 59.5938 -97.8301 97.8301l15.1201 15.1201c11.791 11.9355 18.5605 28.5078 18.5605 45.085v11.5342l-4.07422 10.9229
c-5.19336 13.9209 -11.8154 40.4824 -13.7666 55.3857c-4.44141 31.2812 -31.9727 55.1367 -63.3877 55.1367h-64.417c-35.3613 -0.03125 -63.958 -28.709 -63.958 -64v-3.3916l0.285156 -2.69238c6.35742 -59.9189 36.0332 -143.744 68.8135 -194.312
c29.5244 -46.4941 87.6875 -104.701 134.465 -134.404c49.9482 -32.4043 133.678 -62.2402 193.24 -68.7002l2.68359 -0.291016h3.4502c35.3193 0 64 28.6484 64 64z" />
    <glyph glyph-name="corner-down-right" unicode="&#xf149;" 
d="M320 234.667l-15.085 -15.085l91.582 -91.582l-91.582 -91.582l15.085 -15.085l15.085 -15.085l106.667 106.667l3.77051 3.77148l11.3145 11.3135l-15.085 15.085l-106.667 106.667zM85.333 362.667h-21.333v-149.334c0 -58.8867 47.7793 -106.666 106.667 -106.666h256
v21.333v21.333h-256c-35.3213 0 -64 28.6797 -64 64v149.334h-21.334z" />
    <glyph glyph-name="check-circle" unicode="&#xf12c;" 
d="M469.333 192l-21.333 0.0117188c-0.0566406 -105.906 -86.0918 -191.887 -192 -191.887c-105.968 0 -192 86.0137 -192 192c0 105.966 86.0342 192 192 192c20.8906 0 59.0449 -8.11426 78.1465 -16.6299l8.68652 19.4844l8.6875 19.4844
c-26.6904 11.9004 -66.3271 20.3281 -95.5205 20.3281c-129.534 0 -234.667 -105.133 -234.667 -234.667c0 -129.556 105.135 -234.667 234.667 -234.667c129.467 0 234.598 105.062 234.667 234.53zM469.333 362.667l-15.0918 15.0771l-198.249 -198.441l-48.9072 48.9072
l-15.085 -15.085l-15.085 -15.085l64 -64l15.0928 -15.0928l15.085 15.1006l213.333 213.541z" />
    <glyph glyph-name="arrow-down" unicode="&#xf10c;" 
d="M256 341.333h-21.333v-298.666h21.333h21.333v298.666h-21.333zM405.333 192l-15.085 15.085l-134.248 -134.248l-134.248 134.248l-15.085 -15.085l-15.085 -15.085l149.333 -149.333l15.085 -15.085l15.085 15.085l149.333 149.333z" />
    <glyph glyph-name="gitlab" unicode="&#xf177;" 
d="M500.381 127.129c26.9043 -15.9863 0.0615234 0.0449219 0.191406 0.139648l19.2891 14.0176l-36.0264 106.693l-80.9111 249.015l-76.0273 -233.952h-141.806l-76.1855 233.83l-80.7773 -248.57l-26.0352 -80.6885l-1.75391 -5.4375l-7.01758 -21.749l262.679 -190.903z
M469.4 157.358l-213.4 -155.091l-212.576 154.491l25.2822 78.3564l40.252 123.865l40.3623 -123.881l4.79785 -14.7246h15.4863h172.791h15.499l4.79004 14.7402l40.2363 123.816l40.4111 -124.37z" />
    <glyph glyph-name="instagram" unicode="&#xf184;" 
d="M64 298.667c0 101.924 -16.5908 85.333 85.333 85.333h213.334c101.924 0 85.333 16.5908 85.333 -85.333v-213.334c0 -101.924 16.5908 -85.333 -85.333 -85.333h-213.334c-101.924 0 -85.333 -16.5908 -85.333 85.333v213.334zM21.333 298.667v-213.334
c0 -111.409 16.5908 -128 128 -128h213.334c111.409 0 128 16.5908 128 128v213.334c0 111.409 -16.5908 128 -128 128h-213.334c-111.409 0 -128 -16.5908 -128 -128zM266.309 256.23c24.6543 -3.65527 50.7695 -32.6631 54.6084 -58.5479
c0 -44.0273 -28.6797 -68.7656 -64 -68.7656c-35.3213 0 -64 28.6787 -64 64c0 35.3203 28.6787 64 64 64c0 21.333 9.3916 -0.686523 9.3916 -0.686523zM363.583 192.917v7.91211l-1.14746 7.7373c-6.59375 44.4707 -45.3984 83.2754 -89.8691 89.8691l-7.7373 1.14746
h-7.91211c-58.8877 0 -106.667 -47.7793 -106.667 -106.666c0 -58.8877 47.7793 -106.667 106.667 -106.667c58.8867 0 106.666 47.7793 106.666 106.667zM373.333 309.333z" />
    <glyph glyph-name="map-pin" unicode="&#xf194;" 
d="M469.333 234.667c0 117.763 -95.5703 213.333 -213.333 213.333s-213.333 -95.5703 -213.333 -213.333c0 -165.854 201.404 -295.021 201.404 -295.021l11.9287 -8.04492l11.9287 8.04492s201.404 129.168 201.404 295.021zM426.667 234.667
c0 -113.901 -136.591 -225.966 -170.667 -251.148c-42.8965 31.7012 -170.667 139.443 -170.667 251.148c0 94.1953 76.4717 170.666 170.667 170.666s170.667 -76.4707 170.667 -170.666zM213.333 234.667c0 23.5771 19.0898 42.666 42.667 42.666
s42.667 -19.0889 42.667 -42.666s-19.0898 -42.667 -42.667 -42.667s-42.667 19.0898 -42.667 42.667zM170.667 234.667c0 -47.1318 38.2021 -85.334 85.333 -85.334s85.333 38.2021 85.333 85.334c0 47.1309 -38.2021 85.333 -85.333 85.333
s-85.333 -38.2021 -85.333 -85.333z" />
    <glyph glyph-name="globe" unicode="&#xf178;" 
d="M64 192c0 106.033 85.9668 192 192 192s192 -85.9668 192 -192s-85.9668 -192 -192 -192s-192 85.9668 -192 192zM21.333 192c0 -129.592 105.075 -234.667 234.667 -234.667s234.667 105.075 234.667 234.667s-105.075 234.667 -234.667 234.667
s-234.667 -105.075 -234.667 -234.667zM42.667 192v-21.333h426.666v21.333v21.333h-426.666v-21.333zM271.752 419.721l-15.752 17.2461l-15.752 -17.2461c-50.1318 -54.8877 -89.3496 -152.65 -90.9189 -227.721c1.56934 -75.0703 40.7871 -172.833 90.9189 -227.721
l15.752 -17.2461l15.752 17.2461c50.1318 54.8877 89.3496 152.65 90.9189 227.721c-1.56934 75.0703 -40.7871 172.833 -90.9189 227.721zM256 371.366c39.1074 -56.8428 62.8965 -126.818 63.9951 -179.366c-1.10547 -52.8633 -31.5566 -132.217 -63.9951 -179.366
c-39.1074 56.8428 -62.8965 126.818 -63.9951 179.366c1.10547 52.8633 31.5566 132.217 63.9951 179.366z" />
    <glyph glyph-name="arrow-down-left" unicode="&#xf10e;" 
d="M362.667 298.667l-15.085 15.085l-213.334 -213.334l15.085 -15.085l15.085 -15.085l213.334 213.334zM362.667 85.333v21.334h-192v192h-21.334h-21.333v-213.334v-21.333h21.333h213.334v21.333z" />
    <glyph glyph-name="crop" unicode="&#xf152;" 
d="M130.771 426.667l-21.332 0.18457l-2.77148 -320.185c0 -35.3428 28.6572 -64 64 -64h320v21.333v21.333h-320c-11.7832 0 -21.334 9.55078 -21.334 21.334l2.77051 319.815zM21.333 317.229l0.18457 -21.333l319.815 2.77051c11.7832 0 21.334 -9.55078 21.334 -21.334
v-320h21.333h21.333v320c0 35.3428 -28.6572 64 -64 64l-320.185 -2.77148z" />
    <glyph glyph-name="align-center" unicode="&#xf105;" 
d="M384 234.667v21.333h-256v-21.333v-21.334h256v21.334zM448 320v21.333h-384v-21.333v-21.333h384v21.333zM448 149.333v21.334h-384v-21.334v-21.333h384v21.333zM384 64v21.333h-256v-21.333v-21.333h256v21.333z" />
    <glyph glyph-name="toggle-right" unicode="&#xf1ee;" 
d="M42.667 192c0 144.582 -16.5908 128 128 128h170.666c144.582 0 128 16.5908 128 -128c0 -144.582 16.5908 -128 -128 -128h-170.666c-144.582 0 -128 -16.5908 -128 128zM0 192c0 -154.076 16.582 -170.667 170.667 -170.667h170.666
c154.076 0 170.667 16.582 170.667 170.667c0 154.076 -16.582 170.667 -170.667 170.667h-170.666c-154.076 0 -170.667 -16.582 -170.667 -170.667zM298.667 192c0 23.5771 19.0889 42.667 42.666 42.667s42.667 -19.0898 42.667 -42.667
s-19.0898 -42.667 -42.667 -42.667s-42.666 19.0898 -42.666 42.667zM256 192c0 -47.1309 38.2021 -85.333 85.333 -85.333c47.1318 0 85.334 38.2021 85.334 85.333s-38.2021 85.333 -85.334 85.333c-47.1309 0 -85.333 -38.2021 -85.333 -85.333z" />
    <glyph glyph-name="unlock" unicode="&#xf1fd;" 
d="M85.333 170.667c0 9.53125 -0.1875 7.90332 0.335938 20.9971c0.986328 0.0400391 11.1836 0.335938 20.998 0.335938h298.666c9.53125 0 7.9043 0.188477 20.998 -0.335938c0.0400391 -0.985352 0.335938 -11.1826 0.335938 -20.9971v-149.334
c0 -9.53125 0.1875 -7.90332 -0.335938 -20.9971c-0.986328 -0.0400391 -11.1836 -0.335938 -20.998 -0.335938h-298.666c-9.53125 0 -7.9043 -0.188477 -20.998 0.335938c-0.0400391 0.985352 -0.335938 11.1826 -0.335938 20.9971v149.334zM42.667 170.667v-149.334
c0 -47.4092 16.5908 -64 64 -64h298.666c47.4092 0 64 16.5908 64 64v149.334c0 47.4092 -16.5908 64 -64 64h-298.666c-47.4092 0 -64 -16.5908 -64 -64zM149.333 213.333h21.334v85.4375c0 47.0908 38.2422 85.334 85.333 85.334
c37.5381 0 76.1602 -31.5615 83.6357 -68.3525l20.9062 4.24805l20.9062 4.24805c-11.6914 57.542 -66.7363 102.522 -125.448 102.522c-70.6592 0 -128 -57.3408 -128 -128v-85.4375h21.333z" />
    <glyph glyph-name="navigation-2" unicode="&#xf1aa;" 
d="M276.018 412.708l-20.0176 54.335l-20.0176 -54.335l-149.334 -405.333l-20.2461 -54.9541l50.8486 29.0566l138.749 79.2852l138.749 -79.2852l50.8486 -29.0566l-20.2461 54.9541zM256 343.624l109.069 -296.045l-98.4854 56.2764l-10.584 6.04883l-10.584 -6.04883
l-98.4854 -56.2764z" />
    <glyph glyph-name="video" unicode="&#xf206;" 
d="M469.333 257.212v-130.424l-91.2969 65.2119zM478.267 316.026l-149.333 -106.667l-24.3037 -17.3594l24.3037 -17.3594l149.333 -106.667l33.7334 -24.0947v41.4541v213.334v41.4541zM42.667 298.667c0 9.53125 -0.188477 7.90332 0.334961 20.9971
c0.986328 0.0400391 11.1836 0.335938 20.998 0.335938h234.667c9.53125 0 7.90332 0.188477 20.9971 -0.335938c0.0400391 -0.985352 0.335938 -11.1826 0.335938 -20.9971v-213.334c0 -9.53125 0.188477 -7.90332 -0.335938 -20.9971
c-0.985352 -0.0400391 -11.1826 -0.335938 -20.9971 -0.335938h-234.667c-9.53125 0 -7.9043 -0.188477 -20.998 0.335938c-0.0390625 0.985352 -0.334961 11.1826 -0.334961 20.9971v213.334zM0 298.667v-213.334c0 -47.4092 16.5908 -64 64 -64h234.667
c47.4092 0 64 16.5908 64 64v213.334c0 47.4092 -16.5908 64 -64 64h-234.667c-47.4092 0 -64 -16.5908 -64 -64z" />
    <glyph glyph-name="arrow-left" unicode="&#xf110;" 
d="M405.333 192v21.333h-298.666v-21.333v-21.333h298.666v21.333zM256 42.667l15.085 15.085l-134.248 134.248l134.248 134.248l-15.085 15.085l-15.085 15.085l-149.333 -149.333l-15.085 -15.085l15.085 -15.085l149.333 -149.333z" />
    <glyph glyph-name="more-vertical" unicode="&#xf1a5;" 
d="M213.333 192c0 -23.5645 19.1025 -42.667 42.667 -42.667s42.667 19.1025 42.667 42.667s-19.1025 42.667 -42.667 42.667s-42.667 -19.1025 -42.667 -42.667zM213.333 341.333c0 -23.5635 19.1025 -42.666 42.667 -42.666s42.667 19.1025 42.667 42.666
c0 23.5645 -19.1025 42.667 -42.667 42.667s-42.667 -19.1025 -42.667 -42.667zM213.333 42.667c0 -23.5645 19.1025 -42.667 42.667 -42.667s42.667 19.1025 42.667 42.667c0 23.5635 -19.1025 42.666 -42.667 42.666s-42.667 -19.1025 -42.667 -42.666z" />
    <glyph glyph-name="download" unicode="&#xf158;" 
d="M448 128h-21.333v-85.333c0 -11.7832 -9.55078 -21.334 -21.334 -21.334h-298.666c-11.7832 0 -21.334 9.55078 -21.334 21.334v85.333h-21.333h-21.333v-85.333c0 -35.3428 28.6572 -64 64 -64h298.666c35.3428 0 64 28.6572 64 64v85.333h-21.333zM149.333 234.667
l-15.085 -15.085l106.667 -106.667l15.085 -15.085l15.085 15.085l106.667 106.667l-15.085 15.085l-15.085 15.085l-91.582 -91.582l-91.582 91.582zM256 128h21.333v256h-21.333h-21.333v-256h21.333z" />
    <glyph glyph-name="home" unicode="&#xf180;" 
d="M50.9023 272.84l-8.23535 -6.40625v-10.4336v-234.667c0 -35.3193 28.6484 -64 64 -64h298.666c35.3516 0 64 28.6807 64 64v234.667v10.4336l-8.23535 6.40625l-192 149.333l-13.0977 10.1865l-13.0977 -10.1865zM85.333 245.566l170.667 132.74l170.667 -132.74
v-224.233c0 -11.7637 -9.56055 -21.333 -21.334 -21.333h-298.666c-11.7734 0 -21.334 9.56934 -21.334 21.333v224.233zM192 -21.333h21.333v192h85.334v-192h21.333h21.333v213.333v21.333h-21.333h-128h-21.333v-21.333v-213.333h21.333z" />
    <glyph glyph-name="calendar" unicode="&#xf127;" 
d="M85.333 320c0 9.53125 -0.1875 7.9043 0.335938 20.998c0.986328 0.0390625 11.1836 0.334961 20.998 0.334961h298.666c9.53125 0 7.9043 0.188477 20.998 -0.334961c0.0400391 -0.986328 0.335938 -11.1836 0.335938 -20.998v-298.667
c0 -9.53125 0.1875 -7.90332 -0.335938 -20.9971c-0.986328 -0.0400391 -11.1836 -0.335938 -20.998 -0.335938h-298.666c-9.53125 0 -7.9043 -0.188477 -20.998 0.335938c-0.0400391 0.985352 -0.335938 11.1826 -0.335938 20.9971v298.667zM42.667 320v-298.667
c0 -47.4092 16.5908 -64 64 -64h298.666c47.4092 0 64 16.5908 64 64v298.667c0 47.4092 -16.5908 64 -64 64h-298.666c-47.4092 0 -64 -16.5908 -64 -64zM341.333 405.333h-21.333v-85.333h21.333h21.334v85.333h-21.334zM170.667 405.333h-21.334v-85.333h21.334h21.333
v85.333h-21.333zM64 234.667v-21.334h384v21.334v21.333h-384v-21.333z" />
    <glyph glyph-name="bluetooth" unicode="&#xf120;" 
d="M138.667 309.333l-15.085 -15.085l102.248 -102.248l-102.248 -102.248l30.1699 -30.1699l80.915 80.915v-234.667l168.836 168.837l-117.333 117.333l117.333 117.333l-168.836 168.837v-234.667l-80.915 80.915zM277.333 140.497l65.8301 -65.8301l-65.8301 -65.8301
v131.66zM277.333 248.889v126.274l65.8301 -65.8301z" />
    <glyph glyph-name="maximize-2" unicode="&#xf196;" 
d="M320 384v-21.333h106.667v-106.667h21.333h21.333v128v21.333h-21.333h-128v-21.333zM192 0v21.333h-106.667v106.667h-21.333h-21.333v-128v-21.333h21.333h128v21.333zM448 384l-15.085 15.085l-149.333 -149.333l15.085 -15.085l15.085 -15.085l149.333 149.333zM64 0
l15.085 -15.085l149.333 149.333l-15.085 15.085l-15.085 15.085l-149.333 -149.333z" />
    <glyph glyph-name="sunrise" unicode="&#xf1e4;" 
d="M362.667 64h21.333c0 70.6592 -57.3408 128 -128 128s-128 -57.3408 -128 -128h21.333h21.334c0 47.0908 38.2422 85.333 85.333 85.333s85.333 -38.2422 85.333 -85.333h21.334zM256 405.333h-21.333v-149.333h21.333h21.333v149.333h-21.333zM90.0205 229.979
l-15.085 -15.085l30.292 -30.292l15.085 15.085l15.085 15.085l-30.292 30.292zM21.333 64v-21.333h42.667v21.333v21.333h-42.667v-21.333zM448 64v-21.333h42.667v21.333v21.333h-42.667v-21.333zM391.688 199.688l15.085 -15.085l30.292 30.292l-15.085 15.085
l-15.085 15.085l-30.292 -30.292zM490.667 -21.333v21.333h-469.334v-21.333v-21.334h469.334v21.334zM170.667 320l15.085 -15.085l70.248 70.248l70.248 -70.248l15.085 15.085l15.085 15.085l-85.333 85.333l-3.77148 3.77148l-11.3135 11.3135l-15.085 -15.085
l-85.333 -85.333z" />
    <glyph glyph-name="users" unicode="&#xf205;" 
d="M362.667 0h21.333v42.667c0 58.8867 -47.7793 106.666 -106.667 106.666h-170.666c-58.8877 0 -106.667 -47.7793 -106.667 -106.666v-42.667h21.333h21.334v42.667c0 35.3203 28.6787 64 64 64h170.666c35.3213 0 64 -28.6797 64 -64v-42.667h21.334zM128 298.667
c0 35.3447 28.6543 64 64 64s64 -28.6553 64 -64c0 -35.3457 -28.6543 -64 -64 -64s-64 28.6543 -64 64zM85.333 298.667c0 -58.9053 47.7627 -106.667 106.667 -106.667s106.667 47.7617 106.667 106.667c0 58.9043 -47.7627 106.666 -106.667 106.666
s-106.667 -47.7617 -106.667 -106.666zM490.667 0h21.333v42.6787c-0.0263672 46.7363 -34.7744 91.5127 -79.9932 103.204l-5.33984 -20.6533l-5.34082 -20.6543c25.3643 -6.55859 47.9922 -35.7402 48.0068 -61.9209v-42.6543h21.334zM341.333 381.229l-5.28809 -20.668
c25.4492 -6.51172 48.1221 -35.7188 48.1221 -61.999s-22.6729 -55.4873 -48.1221 -61.999l5.28809 -20.668l5.28906 -20.667c45.3838 11.6133 80.2109 56.4893 80.2109 103.334s-34.8271 91.7207 -80.2109 103.334z" />
    <glyph glyph-name="chevron-left" unicode="&#xf12f;" 
d="M320 64l15.085 15.085l-112.915 112.915l112.915 112.915l-15.085 15.085l-15.085 15.085l-128 -128l-15.085 -15.085l15.085 -15.085l128 -128z" />
    <glyph glyph-name="twitter" unicode="&#xf1f9;" 
d="M443.618 335.627c0 0 -8.24414 -10.7266 -12.2988 -14.7227l-4.65234 -4.58301v-28.3213c0 -199.154 -162.912 -298.228 -323.969 -255.519c21.417 6.31934 58.8701 20.8877 79.9521 35.2031l31.749 21.5576l-35.0684 15.5859
c-122.225 54.3223 -137.668 178.703 -124.01 234.104c37.8301 -45.3135 123.48 -94.3076 194.783 -94.3076h27.2285v21.3955v21.334c0 43.3281 33.2627 75.5205 74.2295 75.5205c16.6895 0 45.0879 -12.9326 56.0234 -25.5156l9.05469 -10.418l13.2139 3.99023z
M478.374 401.436c-10.166 -7.16699 -44.3613 -23.626 -49.1445 -25.5342c-31.499 23.1035 -50.5244 29.6406 -77.667 29.6406c-64.5332 0 -116.896 -51.9551 -116.896 -117.389c-59.1592 7.22363 -123.51 44.4863 -153.209 86.7744
c-47.7119 67.9365 -131.74 -167.855 43.7168 -289.542c-39.9287 -15.8633 -67.3838 -21.5732 -93.9668 -21.5732h-91.8652l71.6299 -39.7949c204.324 -113.513 458.36 1.30078 458.36 263.982c0 0 41.8672 90.1553 42.0625 90.9561l13.4424 55.2373z" />
    <glyph glyph-name="upload-cloud" unicode="&#xf1ff;" 
d="M341.333 106.667l15.085 15.085l-85.333 85.333l-15.085 15.085l-15.085 -15.085l-85.333 -85.333l15.085 -15.085l15.085 -15.085l70.248 70.248l70.248 -70.248zM256 192h-21.333v-192h21.333h21.333v192h-21.333zM434.979 55.6875l10.2051 -18.7334
c38.3955 20.916 66.7529 68.6689 66.7529 112.379c0 70.6172 -57.2988 127.95 -127.938 128h-11.1289c-33.0449 80.2441 -104.33 127.938 -180.976 127.938c-105.99 0 -192 -86.0068 -192 -191.979c0 -42.1348 20.1973 -95.583 48.125 -127.155l15.9795 14.1338
l15.9795 14.1348c-19.3223 21.8438 -37.417 69.6875 -37.417 98.8867c0 82.4023 66.9072 149.312 149.333 149.312c62.668 0 128.877 -51.2617 144.576 -111.947l4.13672 -15.9902h16.5166h26.875c47.0283 -0.0332031 85.2705 -38.2842 85.2705 -85.334
c0 -26.2061 -21.4756 -62.3701 -44.4971 -74.9121zM341.333 106.667l15.085 15.085l-85.333 85.333l-15.085 15.085l-15.085 -15.085l-85.333 -85.333l15.085 -15.085l15.085 -15.085l70.248 70.248l70.248 -70.248z" />
    <glyph glyph-name="wifi-off" unicode="&#xf20f;" 
d="M21.333 426.667l-15.085 -15.085l469.334 -469.334l15.085 15.085l15.085 15.085l-469.334 469.334zM356.688 212.062l-9.375 -19.1631c12.2119 -5.97461 33.8701 -20.1201 44.2236 -28.8994l13.7969 16.2705l13.7979 16.2715
c-14.3135 12.1367 -36.2383 26.4492 -53.0684 34.6836zM106.667 180.271l13.6807 -16.3682c22.79 19.0479 70.9453 41.3154 100.207 46.3193l-3.59668 21.0283l-3.5957 21.0283c-39.1973 -6.7041 -89.875 -30.1455 -120.377 -55.6387zM228.479 340.271l1.69824 -21.2656
c6.72559 0.538086 19.0068 1.03711 25.7178 1.03711c64.7568 0 163.136 -37.1953 211.699 -80.04l14.1133 15.998l14.1133 15.998c-58.2686 51.4053 -162.224 90.71 -239.926 90.71c-8.45508 0 -20.7158 -0.500977 -29.1152 -1.17188zM30.292 256l14.1328 -15.9805
c22.0391 19.4922 66.5791 46.7822 93.958 57.5693l-7.82031 19.8486l-7.82031 19.8486c-33.9551 -13.3789 -79.248 -41.1309 -106.583 -65.3057zM181.979 104.312l12.3604 -17.3877c13.7139 9.74902 44.9453 19.7207 61.7646 19.7207
c16.8174 0 48.0518 -9.96875 61.7939 -19.7275l12.3516 17.3945l12.3516 17.3945c-23.0488 16.3662 -58.2314 27.6055 -86.4971 27.6055c-28.2646 0 -63.4502 -11.2363 -86.4863 -27.6123zM256 21.333z" />
    <glyph glyph-name="clock" unicode="&#xf139;" 
d="M64 192c0 106.033 85.9668 192 192 192s192 -85.9668 192 -192s-85.9668 -192 -192 -192s-192 85.9668 -192 192zM21.333 192c0 -129.592 105.075 -234.667 234.667 -234.667s234.667 105.075 234.667 234.667s-105.075 234.667 -234.667 234.667
s-234.667 -105.075 -234.667 -234.667zM256 320h-21.333v-128v-13.1846l11.792 -5.89648l85.334 -42.667l9.54004 19.0811l9.54102 19.0811l-73.541 36.7705v114.815h-21.333z" />
    <glyph glyph-name="sun" unicode="&#xf1e3;" 
d="M170.667 192c0 47.1387 38.1943 85.333 85.333 85.333s85.333 -38.1943 85.333 -85.333s-38.1943 -85.333 -85.333 -85.333s-85.333 38.1943 -85.333 85.333zM128 192c0 -70.6943 57.3057 -128 128 -128s128 57.3057 128 128s-57.3057 128 -128 128
s-128 -57.3057 -128 -128zM256 426.667h-21.333v-42.667h21.333h21.333v42.667h-21.333zM256 0h-21.333v-42.667h21.333h21.333v42.667h-21.333zM90.0205 357.979l-15.085 -15.085l30.292 -30.292l15.085 15.085l15.085 15.085l-30.292 30.292zM391.688 56.3125
l-15.085 -15.085l30.292 -30.292l15.085 15.085l15.085 15.085l-30.292 30.292zM21.333 192v-21.333h42.667v21.333v21.333h-42.667v-21.333zM448 192v-21.333h42.667v21.333v21.333h-42.667v-21.333zM90.0205 26.0205l15.085 -15.085l30.292 30.292l-15.085 15.085
l-15.085 15.085l-30.292 -30.292zM391.688 327.688l15.085 -15.085l30.292 30.292l-15.085 15.085l-15.085 15.085l-30.292 -30.292z" />
    <glyph glyph-name="user" unicode="&#xf200;" 
d="M426.667 0h21.333v42.667c0 58.8867 -47.7793 106.666 -106.667 106.666h-170.666c-58.8877 0 -106.667 -47.7793 -106.667 -106.666v-42.667h21.333h21.334v42.667c0 35.3203 28.6787 64 64 64h170.666c35.3213 0 64 -28.6797 64 -64v-42.667h21.334zM192 298.667
c0 35.3447 28.6543 64 64 64s64 -28.6553 64 -64c0 -35.3457 -28.6543 -64 -64 -64s-64 28.6543 -64 64zM149.333 298.667c0 -58.9053 47.7627 -106.667 106.667 -106.667s106.667 47.7617 106.667 106.667c0 58.9043 -47.7627 106.666 -106.667 106.666
s-106.667 -47.7617 -106.667 -106.666z" />
    <glyph glyph-name="phone-missed" unicode="&#xf1b6;" 
d="M490.667 426.667l-15.085 15.085l-128 -128l15.085 -15.085l15.085 -15.085l128 128zM362.667 426.667l-15.085 -15.085l128 -128l15.085 15.085l15.085 15.085l-128 128zM365.23 125.283c18.2451 -6.80664 45.3926 -13.5605 64.5303 -16.0664
c9.23047 -1.31055 18.25 -12.0234 18.25 -21.6436l-0.0107422 -64.6982c0 -11.7734 -10.3936 -21.333 -22.4766 -21.333c-50.792 5.50879 -132.307 34.4121 -175.358 62.3418c-39.6396 25.1719 -96.1836 81.6738 -121.535 121.596
c-27.8027 42.8906 -56.8281 125.103 -62.2344 176.054c0 12.0674 9.57031 22.4561 21.292 22.4668h64.417c9.50098 0 19.8027 -9.02051 21.1123 -18.2393c2.50586 -19.1377 9.25977 -46.2852 16.0664 -64.5303zM190.667 293.688
c0 -2.79785 -4.27246 -13.1006 -6.06445 -14.915l-38.6035 -38.6035l8.04199 -14.1348c28.1494 -49.4785 86.5146 -107.844 135.993 -135.993l14.1348 -8.04199l38.5117 38.5117c1.99512 1.9707 12.1729 6.15625 15.0068 6.15625zM490.677 87.5732
c0 31.5781 -23.876 59.4795 -55.1465 63.9189c-14.9033 1.95117 -41.4648 8.57324 -55.3857 13.7666l-10.9229 4.07422h-11.5342c-16.541 0 -33.2383 -6.85645 -44.9932 -18.4688c-15.084 -15.085 -0.126953 -0.126953 -15.2119 -15.2119
c-27.749 19.2285 -71.334 59.5938 -97.8301 97.8301l15.1201 15.1201c11.791 11.9355 18.5605 28.5078 18.5605 45.085v11.5342l-4.07422 10.9229c-5.19336 13.9209 -11.8154 40.4824 -13.7666 55.3857c-4.44141 31.2812 -31.9727 55.1367 -63.3877 55.1367h-64.417
c-35.3613 -0.03125 -63.958 -28.709 -63.958 -64v-3.3916l0.285156 -2.69238c6.35742 -59.9189 36.0332 -143.744 68.8135 -194.312c29.5244 -46.4941 87.6875 -104.701 134.465 -134.404c49.9482 -32.4043 133.678 -62.2402 193.24 -68.7002l2.68359 -0.291016h3.4502
c35.3193 0 64 28.6484 64 64z" />
    <glyph glyph-name="moon" unicode="&#xf1a3;" 
d="M469.243 173.182l4.38574 47.4502l-38.3135 -28.333c-17.1201 -12.6602 -54.7764 -25.0693 -76.0859 -25.0693c-70.6318 0 -128 57.3682 -128 128c0 21.3096 12.4092 58.9658 25.0693 76.0859l28.333 38.3135l-47.4502 -4.38574
c-107.425 -9.93164 -193.702 -104.536 -193.702 -212.431c0 -117.763 95.5703 -213.333 213.333 -213.333c107.892 0 202.499 86.2744 212.431 193.702zM417.32 135.861c-23.9922 -65.04 -89.5703 -113.716 -160.508 -113.716c-94.1953 0 -170.667 76.4717 -170.667 170.667
c0 74.1973 56.7471 139.493 113.716 160.508c-9.30664 -28.2461 -11.2988 -38.7568 -11.2988 -58.0908c0 -94.2021 76.4648 -170.667 170.667 -170.667c18.0107 0 45.418 7.12305 58.0908 11.2988z" />
    <glyph glyph-name="clipboard" unicode="&#xf138;" 
d="M341.333 362.667v-21.334h42.667c11.7539 0 21.333 -9.5791 21.333 -21.333v-298.667c0 -11.7539 -9.5791 -21.333 -21.333 -21.333h-256c-11.7539 0 -21.333 9.5791 -21.333 21.333v298.667c0 11.7539 9.5791 21.333 21.333 21.333h42.667v21.334v21.333h-42.667
c-35.3291 0 -64 -28.6709 -64 -64v-298.667c0 -35.3291 28.6709 -64 64 -64h256c35.3291 0 64 28.6709 64 64v298.667c0 35.3291 -28.6709 64 -64 64h-42.667v-21.333zM192 384h128v-42.667h-128v42.667zM149.333 384v-42.667c0 -26.0938 16.5732 -42.666 42.667 -42.666
h128c26.0938 0 42.667 16.5723 42.667 42.666v42.667c0 26.0938 -16.5732 42.667 -42.667 42.667h-128c-26.0938 0 -42.667 -16.5732 -42.667 -42.667z" />
    <glyph glyph-name="zap" unicode="&#xf216;" 
d="M247.14 335.777l-12.3086 -98.4648l-2.99707 -23.9795h24.166h146.452l-137.592 -165.11l12.3086 98.4648l2.99707 23.9795h-24.166h-146.452zM260.944 418.99l-213.333 -256l-29.1592 -34.9902h45.5479h167.834l-18.3359 -146.688l-9.02539 -72.2021l46.583 55.8994
l213.333 256l29.1592 34.9902h-45.5479h-167.834l18.3359 146.688l9.02539 72.2021z" />
    <glyph glyph-name="slash" unicode="&#xf1db;" 
d="M64 192c0 106.033 85.9668 192 192 192s192 -85.9668 192 -192s-85.9668 -192 -192 -192s-192 85.9668 -192 192zM21.333 192c0 -129.592 105.075 -234.667 234.667 -234.667s234.667 105.075 234.667 234.667s-105.075 234.667 -234.667 234.667
s-234.667 -105.075 -234.667 -234.667zM105.167 342.833l-15.085 -15.085l301.666 -301.666l15.085 15.085l15.085 15.085l-301.666 301.666z" />
    <glyph glyph-name="figma" unicode="&#xf164;" 
d="M85.333 330.667c0 -52.9932 43.0068 -96 96 -96h74.667h21.333v21.333v149.333v21.334h-21.333h-74.667c-52.9932 0 -96 -43.0068 -96 -96zM128 330.667c0 29.4229 23.9102 53.333 53.333 53.333h53.334v-106.667h-53.334c-29.4229 0 -53.333 23.9102 -53.333 53.334z
M256 426.667h-21.333v-21.334v-149.333v-21.333h21.333h74.667c52.9932 0 96 43.0068 96 96s-43.0068 96 -96 96h-74.667zM277.333 384h53.334c29.4229 0 53.333 -23.9102 53.333 -53.333c0 -29.4238 -23.9102 -53.334 -53.333 -53.334h-53.334v106.667zM234.667 181.333
c0 -52.9932 43.0068 -96 96 -96s96 43.0068 96 96s-43.0068 96 -96 96s-96 -43.0068 -96 -96zM277.333 181.333c0 29.4238 23.9102 53.334 53.334 53.334c29.4229 0 53.333 -23.9102 53.333 -53.334c0 -29.4229 -23.9102 -53.333 -53.333 -53.333
c-29.4238 0 -53.334 23.9102 -53.334 53.333zM85.333 32c0 -52.9932 43.0068 -96 96 -96s96 43.0068 96 96v74.667v21.333h-21.333h-74.667c-52.9932 0 -96 -43.0068 -96 -96zM128 32c0 29.4238 23.9102 53.333 53.333 53.333h53.334v-53.333
c0 -29.4238 -23.9102 -53.333 -53.334 -53.333c-29.4229 0 -53.333 23.9092 -53.333 53.333zM85.333 181.333c0 -52.9932 43.0068 -96 96 -96h74.667h21.333v21.334v149.333v21.333h-21.333h-74.667c-52.9932 0 -96 -43.0068 -96 -96zM128 181.333
c0 29.4238 23.9102 53.334 53.333 53.334h53.334v-106.667h-53.334c-29.4229 0 -53.333 23.9102 -53.333 53.333z" />
    <glyph glyph-name="phone-off" unicode="&#xf1b7;" 
d="M365.23 125.283c18.2451 -6.80664 45.3926 -13.5605 64.5303 -16.0664c9.23438 -1.31152 18.2393 -11.2773 18.2393 -21.5293v-64.1875c0 -11.7539 -10.2656 -21.333 -22.2842 -21.333c-50.8477 5.51465 -132.504 34.416 -175.549 62.3408
c-19.4062 12.3252 -51.168 37.79 -67.3857 54.0264l-30.1875 -30.1523c19.4902 -19.5127 51.3955 -45.0898 74.6982 -59.8896c49.9541 -32.4082 133.683 -62.2207 193.241 -68.6807l2.875 -0.311523h3.25879c35.3291 0 64 28.6709 64 64v64.1875
c0 32.166 -23.8398 59.3613 -55.1367 63.8047c-14.9033 1.95117 -41.4648 8.57324 -55.3857 13.7666l-10.9229 4.07422h-11.5342c-16.541 0 -33.2383 -6.85645 -44.9932 -18.4688c-15.084 -15.085 -0.168945 -0.168945 -15.2539 -15.2539
c-12.752 8.66309 -42.5049 31.5059 -54.5137 43.5283l-30.1875 -30.1523c19.9941 -20.0176 52.7334 -44.9668 77.292 -58.9434l14.1357 -8.0459l38.5137 38.5137c1.99512 1.9707 12.1729 6.15625 15.0068 6.15625c0 21.333 7.54297 -1.38379 7.54297 -1.38379z
M190.667 293.688c0 -2.79785 -4.27246 -13.1006 -6.06445 -14.915l-27.1045 -27.1045l30.1699 -30.1699l27.1045 27.1045c11.791 11.9355 18.5605 28.5078 18.5605 45.085v11.5342l-4.07422 10.9229c-5.19336 13.9209 -11.8154 40.4824 -13.7666 55.3857
c-4.44141 31.2812 -31.9727 55.1367 -63.3877 55.1367h-64.417c-35.3613 -0.03125 -63.958 -28.709 -63.958 -64v-3.4502l0.291016 -2.68359c6.4707 -59.6572 36.166 -143.094 68.8115 -193.415l35.7939 23.2217c-27.6875 42.6797 -56.7314 124.487 -62.2305 175.184
c0 12.0703 9.57031 22.4658 21.292 22.4766h64.417c9.50098 0 19.8027 -9.02051 21.1123 -18.2393c2.50586 -19.1377 9.25977 -46.2852 16.0664 -64.5303c19.9873 7.45703 1.38379 -7.54297 1.38379 -7.54297zM190.667 293.688
c0 -2.79785 -4.27246 -13.1006 -6.06445 -14.915l-27.1045 -27.1045l30.1699 -30.1699l27.1045 27.1045c11.791 11.9355 18.5605 28.5078 18.5605 45.085v11.5342l-4.07422 10.9229c-5.19336 13.9209 -11.8154 40.4824 -13.7666 55.3857
c-4.44141 31.2812 -31.9727 55.1367 -63.3877 55.1367h-64.417c-35.3613 -0.03125 -63.958 -28.709 -63.958 -64v-3.4502l0.291016 -2.68359c6.4707 -59.6572 36.166 -143.094 68.8115 -193.415l35.7939 23.2217c-27.6875 42.6797 -56.7314 124.487 -62.2305 175.184
c0 12.0703 9.57031 22.4658 21.292 22.4766h64.417c9.50098 0 19.8027 -9.02051 21.1123 -18.2393c2.50586 -19.1377 9.25977 -46.2852 16.0664 -64.5303c19.9873 7.45703 1.38379 -7.54297 1.38379 -7.54297zM490.667 426.667l-15.085 15.085l-469.334 -469.334
l15.085 -15.085l15.085 -15.085l469.334 469.334z" />
    <glyph glyph-name="zoom-out" unicode="&#xf219;" 
d="M85.333 213.333c0 82.4717 66.8633 149.334 149.334 149.334s149.333 -66.8633 149.333 -149.334s-66.8633 -149.333 -149.333 -149.333c-82.4717 0 -149.334 66.8633 -149.334 149.333zM42.667 213.333c0 -106.029 85.9707 -192 192 -192s192 85.9717 192 192
c0 106.03 -85.9717 192 -192 192c-106.03 0 -192 -85.9707 -192 -192zM448 0l15.085 15.085l-92.792 92.792l-15.085 -15.085l-15.085 -15.085l92.792 -92.792zM170.667 213.333v-21.333h128v21.333v21.334h-128v-21.334z" />
    <glyph glyph-name="volume-x" unicode="&#xf20c;" 
d="M213.333 296.946v-209.893l-72.0059 57.6045l-5.84375 4.6748h-7.4834h-64v85.334h64h7.4834l5.84375 4.6748zM221.34 357.992l-100.823 -80.6592h-77.8496h-21.334v-21.333v-128v-21.333h21.334h77.8496l100.823 -80.6592l34.6602 -27.7275v44.3867v298.666v44.3867z
M490.667 256l-15.085 15.085l-128 -128l15.085 -15.085l15.085 -15.085l128 128zM362.667 256l-15.085 -15.085l128 -128l15.085 15.085l15.085 15.085l-128 128z" />
    <glyph glyph-name="bar-chart-2" unicode="&#xf11b;" 
d="M384 21.333h21.333v213.334h-21.333h-21.333v-213.334h21.333zM256 21.333h21.333v341.334h-21.333h-21.333v-341.334h21.333zM128 21.333h21.333v128h-21.333h-21.333v-128h21.333z" />
    <glyph glyph-name="hash" unicode="&#xf17b;" 
d="M85.333 256v-21.333h341.334v21.333v21.333h-341.334v-21.333zM85.333 128v-21.333h341.334v21.333v21.333h-341.334v-21.333zM213.333 384l-21.2021 2.35547l-42.667 -384l21.2031 -2.35547l21.2021 -2.35547l42.667 384zM341.333 384l-21.2021 2.35547l-42.667 -384
l21.2031 -2.35547l21.2021 -2.35547l42.667 384z" />
    <glyph glyph-name="bold" unicode="&#xf121;" horiz-adv-x="511" 
d="M117.333 384h-21.333v-21.333v-170.667v-21.333h21.333h170.667c58.8867 0 106.666 47.7793 106.666 106.666c0 58.8877 -47.7793 106.667 -106.666 106.667h-170.667zM138.666 341.333h149.334c35.3203 0 64 -28.6787 64 -64c0 -35.3203 -28.6797 -64 -64 -64h-149.334
v128zM117.333 213.333h-21.333v-21.333v-170.667v-21.333h21.333h192c58.8877 0 106.667 47.7793 106.667 106.667c0 58.8867 -47.7793 106.666 -106.667 106.666h-192zM138.666 170.667h170.667c35.3213 0 64 -28.6797 64 -64c0 -35.3213 -28.6787 -64 -64 -64h-170.667
v128z" />
    <glyph glyph-name="power" unicode="&#xf1c0;" 
d="M391.688 306.354l-15.0898 -15.0801c26.1475 -26.165 49.9648 -83.6729 49.9648 -120.67c0 -94.1963 -76.4717 -170.667 -170.667 -170.667s-170.666 76.4717 -170.666 170.667c0 36.9971 23.8174 94.5049 49.9648 120.67l-15.0898 15.0801l-15.0908 15.0791
c-35.8936 -35.918 -62.4512 -100.035 -62.4512 -150.829c0 -117.764 95.5703 -213.334 213.333 -213.334c117.764 0 213.334 95.5713 213.334 213.334c0 50.7939 -26.5576 114.911 -62.4521 150.829zM256 405.333h-21.333v-213.333h21.333h21.333v213.333h-21.333z" />
    <glyph glyph-name="bar-chart" unicode="&#xf11a;" 
d="M256 21.333h21.333v213.334h-21.333h-21.333v-213.334h21.333zM384 21.333h21.333v341.334h-21.333h-21.333v-341.334h21.333zM128 21.333h21.333v85.334h-21.333h-21.333v-85.334h21.333z" />
    <glyph glyph-name="settings" unicode="&#xf1cf;" 
d="M213.333 192c0 23.5771 19.0898 42.667 42.667 42.667s42.667 -19.0898 42.667 -42.667s-19.0898 -42.667 -42.667 -42.667s-42.667 19.0898 -42.667 42.667zM170.667 192c0 -47.1309 38.2021 -85.333 85.333 -85.333s85.333 38.2021 85.333 85.333
s-38.2021 85.333 -85.333 85.333s-85.333 -38.2021 -85.333 -85.333zM432.208 116.617c1.6084 3.75684 10.5186 11.3721 13.9453 11.3828c38.6494 0 65.8467 28.6709 65.8467 64s-25.8057 64 -67.5898 64c-3.36523 0.0107422 -11.2754 5.22754 -12.6318 8.39551
c0 0 -1.27832 -13.8125 -1.27832 7.52148c0 1.11035 3.13867 8.86914 4.01562 9.76562c13.8174 13.7754 19.8174 29.2617 19.8174 46.3174c0 16.666 -6.97656 33.5156 -18.792 45.2949c-11.7119 11.7129 -28.5635 18.7471 -45.249 18.7471
c-17.1475 0 -32.3848 -5.88184 -46.46 -19.9561c-0.629883 -0.617188 -8.54297 -3.87793 -9.62402 -3.87793c0 0 13.7988 -7.11621 -5.8125 1.2793c-3.17188 1.35742 -8.38477 9.23926 -8.39551 12.666c0 38.6494 -28.6709 65.8467 -64 65.8467s-64 -25.8057 -64 -67.5898
c-0.0107422 -3.36523 -5.22754 -11.2754 -8.39551 -12.6318c0 0 13.8125 -1.27832 -7.52148 -1.27832c-1.11035 0 -8.86914 3.13867 -9.76562 4.01562c-13.7754 13.8174 -29.2617 19.8174 -46.3174 19.8174c-16.666 0 -33.5156 -6.97656 -45.2949 -18.792
c-11.7129 -11.7119 -18.7471 -28.5635 -18.7471 -45.249c0 -17.1475 5.88184 -32.3848 19.9561 -46.46c0.617188 -0.629883 3.87793 -8.54297 3.87793 -9.62402c0 0 5.66699 13.1738 -1.69141 -6.84961c-1.27441 -3.46777 -9.15234 -8.98926 -12.4355 -9.06641
c-38.3135 0 -65.665 -28.6484 -65.665 -64c0 -35.3291 25.8057 -64 67.5898 -64c3.36523 -0.0117188 11.2754 -5.22754 12.6318 -8.39551c0 0 1.27832 15.5205 1.27832 -5.81348c0 -1.11035 -3.13867 -8.86914 -4.01562 -9.76562
c-13.8174 -13.7754 -19.8174 -29.2617 -19.8174 -46.3174c0 -16.666 6.97656 -33.5156 18.792 -45.2949c11.7119 -11.7129 28.5635 -18.7471 45.249 -18.7471c17.1475 0 32.3848 5.88184 46.46 19.9561c0.629883 0.617188 8.54297 3.87793 9.62402 3.87793
c0 0 -13.1738 5.66699 6.84961 -1.69141c3.46777 -1.27441 8.98926 -9.15234 9.06641 -12.4355c0 -38.3135 28.6484 -65.665 64 -65.665c35.3291 0 64 25.8057 64 67.5898c0.0117188 3.36523 5.22754 11.2754 8.39551 12.6318c0 0 -15.5205 1.27832 5.81348 1.27832
c1.11035 0 8.86914 -3.13867 9.76562 -4.01562c13.7754 -13.8174 29.2617 -19.8174 46.3174 -19.8174c16.666 0 33.5156 6.97656 45.2949 18.792c11.7129 11.7119 18.7471 28.5635 18.7471 45.249c0 17.1475 -5.88184 32.3848 -19.9561 46.46
c-1.16113 1.18652 -3.87793 5.83789 -3.87793 12.4492zM389.542 113.792c0 -14.7939 5.73926 -28.9238 16.2061 -39.626c4.68066 -4.68066 7.62695 -13.0938 7.62695 -16.458c0 -2.85547 -4.21582 -13.0459 -6.29492 -15.125
c-2.0127 -2.01855 -12.2041 -6.25 -15.0801 -6.25c-3.33789 0 -11.9131 3.07324 -16.293 7.4668c-11.0361 10.793 -24.9492 16.3672 -39.79 16.3672h-11.5742l-11.0293 -4.72168c-20.291 -8.68555 -34.1992 -29.6504 -34.2715 -51.7852
c0 -18.3359 -9.5791 -24.9932 -21.334 -24.9932c-11.7734 0 -21.333 7.83887 -21.333 23.502c-0.547852 23.1738 -15.6514 44.1299 -37.0166 51.9805l-11.7275 4.30859h-9.83887c-14.7939 0 -28.9238 -5.73926 -39.626 -16.2061
c-4.68066 -4.68066 -13.0938 -7.62695 -16.458 -7.62695c-2.85547 0 -13.0459 4.21582 -15.125 6.29492c-2.01855 2.0127 -6.25 12.2041 -6.25 15.0801c0 3.33789 3.07324 11.9131 7.4668 16.293c10.793 11.0361 16.3672 24.9492 16.3672 39.79v11.5742l-4.72168 11.0293
c-8.68555 20.291 -29.6504 34.1992 -51.7852 34.2715c-18.3359 0 -24.9932 9.5791 -24.9932 21.334c0 11.7734 7.83887 21.333 23.502 21.333c23.1738 0.547852 44.1299 15.6514 51.9805 37.0166l4.30859 11.7275v9.83887c0 14.7939 -5.73926 28.9238 -16.2061 39.626
c-4.68066 4.68066 -7.62695 13.0938 -7.62695 16.458c0 2.85547 4.21582 13.0459 6.29492 15.125c2.0127 2.01855 12.2041 6.25 15.0801 6.25c3.33789 0 11.9131 -3.07324 16.293 -7.4668c11.0361 -10.793 24.9492 -16.3672 39.79 -16.3672h13.2832l11.0293 4.72168
c20.29 8.68555 34.1992 29.6504 34.2715 51.7852c0 18.3359 9.5791 24.9932 21.333 24.9932s21.333 -8.02051 21.333 -23.2842c0.0722656 -22.1357 13.9814 -43.1006 34.2715 -51.7861l11.0293 -4.7207h11.5742c14.7939 0 28.9238 5.73926 39.626 16.2061
c4.68066 4.68066 13.0938 7.62695 16.458 7.62695c2.85547 0 13.0459 -4.21582 15.125 -6.29492c2.01855 -2.0127 6.25 -12.2041 6.25 -15.0801c0 -3.33789 -3.07324 -11.9131 -7.4668 -16.293c-10.793 -11.0361 -16.3672 -24.9492 -16.3672 -39.79v-13.2832
l4.72168 -11.0293c8.68555 -20.29 29.6504 -34.1992 51.7852 -34.2715c18.3359 0 24.9932 -9.5791 24.9932 -21.333s-8.02051 -21.333 -23.2842 -21.333c-22.1357 -0.0722656 -43.1006 -13.9814 -51.7861 -34.2715l-4.7207 -11.0293v-11.5742z" />
    <glyph glyph-name="meh" unicode="&#xf197;" 
d="M64 192c0 106.033 85.9668 192 192 192s192 -85.9668 192 -192s-85.9668 -192 -192 -192s-192 85.9668 -192 192zM21.333 192c0 -129.592 105.075 -234.667 234.667 -234.667s234.667 105.075 234.667 234.667s-105.075 234.667 -234.667 234.667
s-234.667 -105.075 -234.667 -234.667zM170.667 128v-21.333h170.666v21.333v21.333h-170.666v-21.333z" />
    <glyph glyph-name="user-minus" unicode="&#xf202;" 
d="M341.333 0h21.334v42.667c0 58.8867 -47.7793 106.666 -106.667 106.666h-149.333c-58.8877 0 -106.667 -47.7793 -106.667 -106.666v-42.667h21.333h21.334v42.667c0 35.3203 28.6787 64 64 64h149.333c35.3213 0 64 -28.6797 64 -64v-42.667h21.333zM117.333 298.667
c0 35.3447 28.6553 64 64 64c35.3457 0 64 -28.6553 64 -64c0 -35.3457 -28.6543 -64 -64 -64c-35.3447 0 -64 28.6543 -64 64zM74.667 298.667c0 -58.9053 47.7617 -106.667 106.666 -106.667c58.9053 0 106.667 47.7617 106.667 106.667
c0 58.9043 -47.7617 106.666 -106.667 106.666c-58.9043 0 -106.666 -47.7617 -106.666 -106.666zM490.667 213.333v21.334h-128v-21.334v-21.333h128v21.333z" />
    <glyph glyph-name="rotate-cw" unicode="&#xf1c8;" 
d="M490.667 362.667h-21.334v-106.667h-106.666v-21.333v-21.334h128h21.333v21.334v128h-21.333zM437.125 128l-20.1143 7.1084c-21.7344 -61.5059 -95.708 -113.816 -160.928 -113.816c-94.1953 0 -170.666 76.4707 -170.666 170.666
c0 94.1963 76.4707 170.667 170.666 170.667c37.1094 0 94.3389 -23.6162 120.951 -50.2461l99.0068 -93.2422l14.626 15.5303l14.626 15.5303l-98.5361 92.7988c-35.4707 35.4951 -99.9492 62.2959 -150.674 62.2959c-117.763 0 -213.333 -95.5713 -213.333 -213.334
s95.5703 -213.333 213.333 -213.333c84.6973 0 172.933 62.3975 201.156 142.267z" />
    <glyph glyph-name="thumbs-down" unicode="&#xf1eb;" 
d="M234.667 128v21.333h-21.334h-120.75c-12.6436 0 -21.8125 9.55078 -21.8125 21.334l0.233398 3.16211l29.4375 192c1.41504 9.31543 11.7412 18.1709 21.1006 18.1709h219.791v-208.806l-76.9736 -173.192c-11.8975 3.96191 -29.6924 19.3262 -29.6924 40.665v85.333z
M192 106.667v-64c0 -47.1162 38.2178 -85.334 85.333 -85.334h13.8643l5.63086 12.6689l85.333 192l1.83887 4.1377v4.52734v234.666v21.334h-21.333h-241.125c-31.1406 0 -58.6064 -23.6445 -63.2744 -54.3711l-29.4375 -192l-0.725586 -4.73242v-4.89648
c0 -35.3428 28.2744 -64 64.4785 -64h99.417zM362.667 405.333v-21.333h57.833c12.792 0 25.9775 -11.5186 27.6924 -24.1934c0 0 -0.192383 -132.119 -0.192383 -145.037c-1.37207 -10.1406 -14.0576 -22.7695 -28.375 -22.7695h-56.958v-21.333v-21.334h56.958
c36.3262 0 66.1846 26.6582 70.8486 61.1406l0.193359 1.42285v1.43652v149.334v1.43652l-0.193359 1.42285c-4.66016 34.4512 -35.2236 61.1406 -69.9736 61.1406h-57.833v-21.334zM362.667 405.333v-21.333h57.833c12.792 0 25.9775 -11.5186 27.6924 -24.1934
c0 0 -0.192383 -132.119 -0.192383 -145.037c-1.37207 -10.1406 -14.0576 -22.7695 -28.375 -22.7695h-56.958v-21.333v-21.334h56.958c36.3262 0 66.1846 26.6582 70.8486 61.1406l0.193359 1.42285v1.43652v149.334v1.43652l-0.193359 1.42285
c-4.66016 34.4512 -35.2236 61.1406 -69.9736 61.1406h-57.833v-21.334z" />
    <glyph glyph-name="umbrella" unicode="&#xf1fb;" 
d="M465.787 213.333h-419.574c18.9697 87.5537 107.02 170.667 209.787 170.667c99.0215 0 189.051 -74.96 209.787 -170.667zM511.903 194.029c-12.3174 128.916 -126.39 232.638 -255.903 232.638s-243.586 -103.722 -255.903 -232.638l-2.23242 -23.3623h23.4688h469.334
h23.4688zM384 42.667h-21.333c0 -23.5518 -19.1162 -42.667 -42.667 -42.667s-42.667 19.1152 -42.667 42.667v149.333h-21.333h-21.333v-149.333c0 -47.1162 38.2178 -85.334 85.333 -85.334s85.333 38.2178 85.333 85.334h-21.333zM384 42.667h-21.333
c0 -23.5518 -19.1162 -42.667 -42.667 -42.667s-42.667 19.1152 -42.667 42.667v149.333h-21.333h-21.333v-149.333c0 -47.1162 38.2178 -85.334 85.333 -85.334s85.333 38.2178 85.333 85.334h-21.333z" />
    <glyph glyph-name="plus-circle" unicode="&#xf1bd;" 
d="M64 192c0 106.033 85.9668 192 192 192s192 -85.9668 192 -192s-85.9668 -192 -192 -192s-192 85.9668 -192 192zM21.333 192c0 -129.592 105.075 -234.667 234.667 -234.667s234.667 105.075 234.667 234.667s-105.075 234.667 -234.667 234.667
s-234.667 -105.075 -234.667 -234.667zM256 277.333h-21.333v-170.666h21.333h21.333v170.666h-21.333zM170.667 192v-21.333h170.666v21.333v21.333h-170.666v-21.333z" />
    <glyph glyph-name="folder-plus" unicode="&#xf16e;" 
d="M490.667 42.667v234.666c0 35.3516 -28.6807 64 -64 64h-180.583l-36.334 54.501l-6.33301 9.49902h-11.417h-106.667c-35.3193 0 -64 -28.6484 -64 -64v-298.666c0 -35.3516 28.6807 -64 64 -64h341.334c35.3193 0 64 28.6484 64 64zM448 42.667
c0 -11.7734 -9.56934 -21.334 -21.333 -21.334h-341.334c-11.7637 0 -21.333 9.56055 -21.333 21.334v298.666c0 11.7734 9.56934 21.334 21.333 21.334h95.25l36.333 -54.501l6.33301 -9.49902h11.418h192c11.7637 0 21.333 -9.56055 21.333 -21.334v-234.666zM256 213.333
h-21.333v-128h21.333h21.333v128h-21.333zM192 149.333v-21.333h128v21.333v21.334h-128v-21.334z" />
    <glyph glyph-name="corner-right-up" unicode="&#xf14d;" 
d="M213.333 256l15.085 -15.085l91.582 91.582l91.582 -91.582l15.085 15.085l15.085 15.085l-106.667 106.667l-15.085 15.085l-15.085 -15.085l-106.667 -106.667zM85.333 21.333v-21.333h149.334c58.8867 0 106.666 47.7793 106.666 106.667v256h-21.333h-21.333v-256
c0 -35.3213 -28.6797 -64 -64 -64h-149.334v-21.334z" />
    <glyph glyph-name="eye-off" unicode="&#xf160;" 
d="M382.729 65.2705l-12.9238 16.9736c-26.3037 -20.0283 -81.2285 -39.0342 -113.982 -39.5771c-114.372 0 -193.142 120.03 -210.041 149.139c24.3848 39.8838 65.1084 86.0312 96.4404 109.972l-12.9521 16.9521l-12.9521 16.9512
c-40.6973 -31.0967 -89.5625 -88.4668 -113.782 -133.592l-5.2793 -9.83594l5.07129 -9.94434s87.5664 -182.309 253.849 -182.309c45.1631 0.749023 103.78 21.1182 139.477 48.2979zM211.208 357.542l4.87891 -20.7686c9.9248 2.33105 28.9473 4.55957 39.9131 4.55957
c114.72 0 193.271 -119.947 210.255 -149.202c-15.54 -25.4951 -26.1387 -40.3652 -37.9961 -54.46l16.3242 -13.7334l16.3252 -13.7334c16.1016 19.1387 36.7881 49.7002 48.5713 71.7363l5.25391 9.8252l-5.06152 9.92578s-87.7158 182.309 -253.672 182.309
c-15.7715 0 -35.0254 -2.25 -49.6699 -5.69043zM301.229 146.771l-15.6104 14.541c-5.62207 -6.03516 -22.9688 -13.582 -31.2236 -13.582c-23.5254 0 -42.666 19.1406 -42.666 42.666c0 8.25488 7.54688 25.6016 13.582 31.2236l-14.541 15.6104l-14.54 15.6104
c-16.4648 -15.3369 -27.168 -39.9492 -27.168 -62.4443c0 -47.0996 38.2334 -85.333 85.333 -85.333c22.4951 0 47.1074 10.7031 62.4443 27.168zM211.208 357.542l4.87891 -20.7686c9.9248 2.33105 28.9473 4.55957 39.9131 4.55957
c114.72 0 193.271 -119.947 210.255 -149.202c-15.54 -25.4951 -26.1387 -40.3652 -37.9961 -54.46l16.3242 -13.7334l16.3252 -13.7334c16.1016 19.1387 36.7881 49.7002 48.5713 71.7363l5.25391 9.8252l-5.06152 9.92578s-87.7158 182.309 -253.672 182.309
c-15.7715 0 -35.0254 -2.25 -49.6699 -5.69043zM301.229 146.771l-15.6104 14.541c-5.62207 -6.03516 -22.9688 -13.582 -31.2236 -13.582c-23.5254 0 -42.666 19.1406 -42.666 42.666c0 8.25488 7.54688 25.6016 13.582 31.2236l-14.541 15.6104l-14.54 15.6104
c-16.4648 -15.3369 -27.168 -39.9492 -27.168 -62.4443c0 -47.0996 38.2334 -85.333 85.333 -85.333c22.4951 0 47.1074 10.7031 62.4443 27.168zM301.229 146.771l-15.6104 14.541c-5.62207 -6.03516 -22.9688 -13.582 -31.2236 -13.582
c-23.5254 0 -42.666 19.1406 -42.666 42.666c0 8.25488 7.54688 25.6016 13.582 31.2236l-14.541 15.6104l-14.54 15.6104c-16.4648 -15.3369 -27.168 -39.9492 -27.168 -62.4443c0 -47.0996 38.2334 -85.333 85.333 -85.333c22.4951 0 47.1074 10.7031 62.4443 27.168z
M21.333 426.667l-15.085 -15.085l469.334 -469.334l15.085 15.085l15.085 15.085l-469.334 469.334z" />
    <glyph glyph-name="user-x" unicode="&#xf204;" 
d="M341.333 0h21.334v42.667c0 58.8867 -47.7793 106.666 -106.667 106.666h-149.333c-58.8877 0 -106.667 -47.7793 -106.667 -106.666v-42.667h21.333h21.334v42.667c0 35.3203 28.6787 64 64 64h149.333c35.3213 0 64 -28.6797 64 -64v-42.667h21.333zM117.333 298.667
c0 35.3447 28.6553 64 64 64c35.3457 0 64 -28.6553 64 -64c0 -35.3457 -28.6543 -64 -64 -64c-35.3447 0 -64 28.6543 -64 64zM74.667 298.667c0 -58.9053 47.7617 -106.667 106.666 -106.667c58.9053 0 106.667 47.7617 106.667 106.667
c0 58.9043 -47.7617 106.666 -106.667 106.666c-58.9043 0 -106.666 -47.7617 -106.666 -106.666zM384 277.333l-15.085 -15.085l106.667 -106.666l15.085 15.085l15.085 15.085l-106.667 106.666zM490.667 277.333l-15.085 15.085l-106.667 -106.666l15.085 -15.085
l15.085 -15.085l106.667 106.666z" />
    <glyph glyph-name="arrow-left-circle" unicode="&#xf111;" 
d="M64 192c0 106.033 85.9668 192 192 192s192 -85.9668 192 -192s-85.9668 -192 -192 -192s-192 85.9668 -192 192zM21.333 192c0 -129.592 105.075 -234.667 234.667 -234.667s234.667 105.075 234.667 234.667s-105.075 234.667 -234.667 234.667
s-234.667 -105.075 -234.667 -234.667zM256 277.333l-15.085 15.085l-85.333 -85.333l-15.085 -15.085l15.085 -15.085l85.333 -85.333l15.085 15.085l15.085 15.085l-70.248 70.248l70.248 70.248zM341.333 192v21.333h-170.666v-21.333v-21.333h170.666v21.333z" />
    <glyph glyph-name="box" unicode="&#xf125;" 
d="M426.667 106.683c0 -5.0293 -6.3418 -15.9619 -10.6621 -18.4541l-149.256 -85.2891c-1.26855 -0.731445 -9.41113 -2.89746 -10.749 -2.89746c-1.30566 0 -9.55371 2.20801 -10.6807 2.8584l-149.401 85.3721c-4.18066 2.41211 -10.5771 13.4092 -10.585 18.4268
v170.634c0.0078125 4.9707 6.3457 15.9482 10.6621 18.4385l149.256 85.2891c1.26855 0.731445 9.41113 2.89746 10.749 2.89746c1.30566 0 9.55371 -2.20801 10.6807 -2.8584l149.401 -85.3721c4.18066 -2.41211 10.5771 -13.4092 10.585 -18.4268v-170.618z
M469.333 106.65v170.716c-0.0332031 22.1494 -12.7207 44.2354 -32.082 55.4062l-149.265 85.2939c-9.79004 5.64258 -20.667 8.55859 -31.9863 8.55859c-11.2871 0 -22.2695 -2.95898 -31.918 -8.51953l-149.41 -85.377
c-19.2256 -11.0928 -31.9707 -33.1992 -32.0049 -55.3955v-170.699c0.0332031 -22.1494 12.7207 -44.2354 32.082 -55.4062l149.265 -85.2939c9.79004 -5.64258 20.667 -8.55859 31.9863 -8.55859c11.2871 0 22.2695 2.95898 31.918 8.51953l149.41 85.377
c19.2217 11.0908 31.9717 33.2373 32.0049 55.3789zM69.75 299.521l-10.6816 -18.4668l186.25 -107.729l10.6816 -6.17871l10.6816 6.17871l186.25 107.729l-10.6816 18.4668l-10.6816 18.4668l-175.568 -101.551l-175.568 101.551zM256 -23.042h21.333v215.042h-21.333
h-21.333v-215.042h21.333z" />
    <glyph glyph-name="search" unicode="&#xf1cc;" 
d="M85.333 213.333c0 82.4717 66.8633 149.334 149.334 149.334s149.333 -66.8633 149.333 -149.334s-66.8633 -149.333 -149.333 -149.333c-82.4717 0 -149.334 66.8633 -149.334 149.333zM42.667 213.333c0 -106.029 85.9707 -192 192 -192s192 85.9717 192 192
c0 106.03 -85.9717 192 -192 192c-106.03 0 -192 -85.9707 -192 -192zM448 0l15.085 15.085l-92.792 92.792l-15.085 -15.085l-15.085 -15.085l92.792 -92.792z" />
    <glyph glyph-name="file-minus" unicode="&#xf166;" 
d="M289.83 384l115.503 -115.503v-247.164c0 -11.7539 -9.5791 -21.333 -21.333 -21.333h-256c-11.7539 0 -21.333 9.5791 -21.333 21.333v341.334c0 11.7539 9.5791 21.333 21.333 21.333h161.83zM298.667 426.667h-170.667c-35.3291 0 -64 -28.6709 -64 -64v-341.334
c0 -35.3291 28.6709 -64 64 -64h256c35.3291 0 64 28.6709 64 64v256v8.83691l-6.24805 6.24805l-128 128l-6.24902 6.24902h-8.83594zM298.667 405.333h-21.334v-128v-21.333h21.334h128v21.333v21.334h-106.667v106.666h-21.333zM192 128v-21.333h128v21.333v21.333h-128
v-21.333z" />
    <glyph glyph-name="volume-1" unicode="&#xf20a;" 
d="M213.333 296.946v-209.893l-72.0059 57.6045l-5.84375 4.6748h-7.4834h-64v85.334h64h7.4834l5.84375 4.6748zM221.34 357.992l-100.823 -80.6592h-77.8496h-21.334v-21.333v-128v-21.333h21.334h77.8496l100.823 -80.6592l34.6602 -27.7275v44.3867v298.666v44.3867z
M331.521 267.521l-15.0938 -15.0752c12.3652 -12.3809 24.9902 -42.8477 24.9902 -60.3408c0 -17.4717 -12.6289 -47.9648 -24.9902 -60.3408l15.0938 -15.0762l15.0947 -15.0762c22.0967 22.124 37.4678 59.2148 37.4678 90.4932
c0 31.2979 -15.375 68.373 -37.4678 90.4922z" />
    <glyph glyph-name="git-merge" unicode="&#xf174;" 
d="M341.333 64c0 23.5771 19.0898 42.667 42.667 42.667s42.667 -19.0898 42.667 -42.667s-19.0898 -42.667 -42.667 -42.667s-42.667 19.0898 -42.667 42.667zM298.667 64c0 -47.1309 38.2021 -85.333 85.333 -85.333s85.333 38.2021 85.333 85.333
s-38.2021 85.333 -85.333 85.333s-85.333 -38.2021 -85.333 -85.333zM85.333 320c0 23.5771 19.0898 42.667 42.667 42.667s42.667 -19.0898 42.667 -42.667s-19.0898 -42.667 -42.667 -42.667s-42.667 19.0898 -42.667 42.667zM42.667 320
c0 -47.1309 38.2021 -85.333 85.333 -85.333s85.333 38.2021 85.333 85.333s-38.2021 85.333 -85.333 85.333s-85.333 -38.2021 -85.333 -85.333zM128 0h21.333v127.996c47.0723 -60.8799 100.461 -85.3291 170.667 -85.3291v21.333v21.333
c-94.1953 0 -170.667 76.4717 -170.667 170.667c-21.333 0 -42.666 21.333 -42.666 0v-256h21.333z" />
    <glyph glyph-name="package" unicode="&#xf1ac;" 
d="M352 247.458l10.6582 18.4805l-192 110.729l-10.6582 -18.4805l-10.6582 -18.4805l192 -110.729zM426.667 106.683c0 -5.0293 -6.3418 -15.9619 -10.6621 -18.4541l-149.256 -85.2891c-1.26855 -0.731445 -9.41113 -2.89746 -10.749 -2.89746
c-1.30566 0 -9.55371 2.20801 -10.6807 2.8584l-149.401 85.3721c-4.18066 2.41211 -10.5771 13.4092 -10.585 18.4268v170.634c0.0078125 4.9707 6.3457 15.9482 10.6621 18.4385l149.256 85.2891c1.26855 0.731445 9.41113 2.89746 10.749 2.89746
c1.30566 0 9.55371 -2.20801 10.6807 -2.8584l149.401 -85.3721c4.18066 -2.41211 10.5771 -13.4092 10.585 -18.4268v-170.618zM469.333 106.65v170.716c-0.0332031 22.1494 -12.7207 44.2354 -32.082 55.4062l-149.265 85.2939
c-9.79004 5.64258 -20.667 8.55859 -31.9863 8.55859c-11.2871 0 -22.2695 -2.95898 -31.918 -8.51953l-149.41 -85.377c-19.2256 -11.0928 -31.9707 -33.1992 -32.0049 -55.3955v-170.699c0.0332031 -22.1494 12.7207 -44.2354 32.082 -55.4062l149.265 -85.2939
c9.79004 -5.64258 20.667 -8.55859 31.9863 -8.55859c11.2871 0 22.2695 2.95898 31.918 8.51953l149.41 85.377c19.2217 11.0908 31.9717 33.2373 32.0049 55.3789zM69.75 299.521l-10.6816 -18.4668l186.25 -107.729l10.6816 -6.17871l10.6816 6.17871l186.25 107.729
l-10.6816 18.4668l-10.6816 18.4668l-175.568 -101.551l-175.568 101.551zM256 -23.042h21.333v215.042h-21.333h-21.333v-215.042h21.333z" />
    </font>
</defs>
</svg>
